<svg xmlns="http://www.w3.org/2000/svg" viewBox="0 0 1280 850" font-family="Poppins, system-ui, sans-serif">
  <defs>
    <filter id="s1" x="-5%" y="-5%" width="115%" height="115%"><feDropShadow dx="0" dy="1" stdDeviation="3" flood-opacity="0.04"/></filter>
  </defs>
  <rect width="1280" height="850" fill="#f0f4f8"/>
  <rect x="0" y="0" width="260" height="850" fill="#0f172a"/>
  <rect x="20" y="20" width="220" height="50" rx="10" fill="#1e293b"/>
  <rect x="28" y="28" width="36" height="34" rx="8" fill="#2563eb"/>
  <text x="46" y="51" fill="#fff" font-size="16" font-weight="700" text-anchor="middle">MD</text>
  <text x="75" y="48" fill="#fff" font-size="17" font-weight="600">MeraDarzi</text>
  <text x="75" y="63" fill="#94a3b8" font-size="9">Pakistan's Tailor OS</text>
  <rect x="16" y="86" width="228" height="40" rx="10" fill="#2563eb"/>
  <text x="50" y="112" fill="#fff" font-size="13" font-weight="600">+ Naya Order</text>
  <g transform="translate(0, 145)">
    <rect x="12" y="0" width="236" height="44" rx="10" fill="transparent"/>
    <text x="50" y="27" fill="#94a3b8" font-size="13">Dashboard</text><rect x="22" y="16" width="18" height="18" rx="4" fill="none" stroke="#94a3b8" stroke-width="1.8"/><rect x="26" y="20" width="10" height="10" rx="2" fill="#94a3b8"/>
    <rect x="12" y="52" width="236" height="44" rx="10" fill="transparent"/>
    <text x="50" y="79" fill="#94a3b8" font-size="13">Orders</text>
    <rect x="22" y="68" width="18" height="18" rx="4" fill="none" stroke="#94a3b8" stroke-width="1.8"/>
    <line x1="26" y1="72" x2="36" y2="72" stroke="#94a3b8" stroke-width="1.8"/>
    <line x1="26" y1="77" x2="33" y2="77" stroke="#94a3b8" stroke-width="1.8"/>
    <line x1="26" y1="82" x2="36" y2="82" stroke="#94a3b8" stroke-width="1.8"/>
    <rect x="12" y="104" width="236" height="44" rx="10" fill="transparent"/>
    <text x="50" y="131" fill="#94a3b8" font-size="13">Customers</text>
    <circle cx="31" cy="120" r="8" fill="none" stroke="#94a3b8" stroke-width="1.8"/><circle cx="31" cy="125" r="3" fill="#94a3b8"/><path d="M23 134 Q31 128 39 134" fill="none" stroke="#94a3b8" stroke-width="1.8"/>
    <rect x="12" y="156" width="236" height="44" rx="10" fill="transparent"/>
    <text x="50" y="183" fill="#94a3b8" font-size="13">Payments</text>
    <rect x="24" y="170" width="14" height="14" rx="2" fill="none" stroke="#94a3b8" stroke-width="1.6"/>
    <text x="26" y="182" fill="#94a3b8" font-size="8" font-weight="700">$</text>
    <rect x="12" y="208" width="236" height="44" rx="10" fill="transparent"/>
    <text x="50" y="235" fill="#94a3b8" font-size="13">Reports</text>
    <rect x="23" y="221" width="16" height="14" rx="2" fill="none" stroke="#94a3b8" stroke-width="1.6"/>
    <line x1="26" y1="228" x2="36" y2="228" stroke="#94a3b8" stroke-width="1.2"/>
    <line x1="26" y1="232" x2="33" y2="232" stroke="#94a3b8" stroke-width="1.2"/>
    <rect x="12" y="260" width="236" height="44" rx="10" fill="transparent"/>
    <text x="50" y="287" fill="#94a3b8" font-size="13">Team</text>
    <circle cx="27" cy="276" r="3" fill="#94a3b8"/><circle cx="35" cy="276" r="3" fill="#94a3b8"/>
    <circle cx="31" cy="284" r="3" fill="#94a3b8"/>
    <rect x="12" y="312" width="236" height="44" rx="10" fill="transparent"/>
    <text x="50" y="339" fill="#94a3b8" font-size="13">Settings</text>
    <circle cx="31" cy="330" r="7" fill="none" stroke="#94a3b8" stroke-width="1.8"/>
    <rect x="28" y="327" width="6" height="6" rx="3" fill="#94a3b8"/>
  </g>
  <rect x="16" y="750" width="228" height="64" rx="12" fill="#1e293b"/>
  <circle cx="45" cy="782" r="18" fill="#2563eb"/>
  <text x="45" y="787" fill="#fff" font-size="12" font-weight="600" text-anchor="middle">AK</text>
  <text x="72" y="777" fill="#fff" font-size="13" font-weight="500">Ahmed's Tailors</text>
  <rect x="72" y="786" width="80" height="18" rx="5" fill="#1d4ed8"/>
  <text x="112" y="799" fill="#bfdbfe" font-size="9" text-anchor="middle">Professional</text>
  <!-- MAIN -->
  <g transform="translate(280,0)">
    <rect x="0" y="0" width="1000" height="64" fill="#fff"/>
    <rect x="0" y="63" width="1000" height="1" fill="#e2e8f0"/>
    <text x="28" y="28" fill="#64748b" font-size="12">Pages</text>
    <text x="72" y="28" fill="#64748b" font-size="12">/</text>
    <text x="84" y="28" fill="#0f172a" font-size="12" font-weight="600">Orders</text>
    <text x="130" y="28" fill="#64748b" font-size="12">/</text>
    <text x="145" y="28" fill="#2563eb" font-size="12" font-weight="600">New Order</text>
    <rect x="580" y="16" width="200" height="32" rx="16" fill="#f1f5f9" stroke="#e2e8f0" stroke-width="1"/>
    <circle cx="595" cy="32" r="4" fill="none" stroke="#94a3b8" stroke-width="1.5"/>
    <line x1="598" y1="35" x2="603" y2="40" stroke="#94a3b8" stroke-width="1.5"/>
    <text x="606" y="36" fill="#94a3b8" font-size="11">Search...</text>
    <rect x="810" y="16" width="32" height="32" rx="8" fill="#f1f5f9"/>
    <text x="826" y="37" fill="#64748b" font-size="16">🔔</text>
    <circle cx="832" cy="20" r="6" fill="#ef4444"/>
    <text x="832" y="23" fill="#fff" font-size="7" font-weight="600" text-anchor="middle">3</text>
    <!-- Step Indicator -->
    <rect x="0" y="64" width="1000" height="80" fill="#fff"/>
    <rect x="0" y="143" width="1000" height="1" fill="#e2e8f0"/>
    <text x="28" y="88" fill="#64748b" font-size="11">Step 1 of 3</text>
    <text x="28" y="108" fill="#0f172a" font-size="18" font-weight="700">Gahak Chunein</text>
    <!-- Progress bars -->
    <rect x="28" y="122" width="100" height="4" rx="2" fill="#16a34a"/>
    <rect x="140" y="122" width="100" height="4" rx="2" fill="#e2e8f0"/>
    <rect x="252" y="122" width="100" height="4" rx="2" fill="#e2e8f0"/>
    <text x="28" y="138" fill="#16a34a" font-size="10" font-weight="500">✓ Gahak Chunein</text>
    <text x="140" y="138" fill="#94a3b8" font-size="10">2 Kapra &amp; Nap</text>
    <text x="252" y="138" fill="#94a3b8" font-size="10">3 Qeemat &amp; Tarikh</text>
    <!-- Main Content -->
    <text x="28" y="175" fill="#0f172a" font-size="16" font-weight="600">Customer Select Karein</text>
    <text x="28" y="195" fill="#64748b" font-size="12">Naam ya number se dhundein ya naya gahak banayein</text>
    <!-- Search -->
    <rect x="28" y="212" width="360" height="40" rx="10" fill="#f1f5f9" stroke="#e2e8f0" stroke-width="1"/>
    <circle cx="50" cy="232" r="6" fill="none" stroke="#94a3b8" stroke-width="1.5"/>
    <line x1="55" y1="237" x2="62" y2="244" stroke="#94a3b8" stroke-width="1.5"/>
    <text x="70" y="237" fill="#94a3b8" font-size="12">Search by name or phone number...</text>
    <!-- Add New Customer Button -->
    <rect x="406" y="212" width="180" height="40" rx="10" fill="#fff" stroke="#2563eb" stroke-width="1.5" stroke-dasharray="5,3"/>
    <text x="426" y="237" fill="#2563eb" font-size="12" font-weight="500">+ Naya Gahak Banayein</text>
    <!-- New Customer Form -->
    <rect x="28" y="266" width="620" height="180" rx="14" fill="#fff" stroke="#e2e8f0" stroke-width="1" filter="url(#s1)"/>
    <text x="48" y="295" fill="#0f172a" font-size="14" font-weight="600">Naya Gahak — Details</text>
    <!-- Gender Quick Pick -->
    <text x="48" y="322" fill="#64748b" font-size="11">Gender *</text>
    <rect x="48" y="332" width="80" height="32" rx="8" fill="#2563eb"/>
    <text x="88" y="352" fill="#fff" font-size="11" text-anchor="middle">🧑 Male</text>
    <rect x="138" y="332" width="90" height="32" rx="8" fill="#f1f5f9" stroke="#e2e8f0" stroke-width="1"/>
    <text x="183" y="352" fill="#64748b" font-size="11" text-anchor="middle">👩 Female</text>
    <rect x="238" y="332" width="85" height="32" rx="8" fill="#f1f5f9" stroke="#e2e8f0" stroke-width="1"/>
    <text x="280" y="352" fill="#64748b" font-size="11" text-anchor="middle">👦 Child</text>
    <!-- Name Input -->
    <text x="48" y="400" fill="#64748b" font-size="11">Poora Naam *</text>
    <rect x="48" y="408" width="260" height="38" rx="8" fill="#fff" stroke="#d1d5db" stroke-width="1"/>
    <text x="62" y="432" fill="#cbd5e1" font-size="12">Ali Raza</text>
    <!-- Phone Input -->
    <text x="330" y="400" fill="#64748b" font-size="11">Phone Number *</text>
    <rect x="330" y="408" width="260" height="38" rx="8" fill="#fff" stroke="#16a34a" stroke-width="1.5"/>
    <text x="345" y="432" fill="#0f172a" font-size="12">0301</text>
    <text x="370" y="432" fill="#9ca3af" font-size="12">123-4567</text>
    <text x="560" y="432" fill="#16a34a" font-size="14">✓</text>
    <!-- Save Button -->
    <rect x="48" y="460" width="150" height="38" rx="10" fill="#2563eb"/>
    <text x="123" y="485" fill="#fff" font-size="12" font-weight="600" text-anchor="middle">💾 Gahak Save Karein</text>
    <!-- Customer List Section -->
    <text x="28" y="480" fill="#0f172a" font-size="14" font-weight="600">Ya Phir Pehle Se Gahak Chunein</text>
    <text x="410" y="480" fill="#64748b" font-size="11">48 total customers</text>
    <!-- Customer Cards -->
    <g transform="translate(28, 496)">
      <!-- Card 1 - Selected -->
      <rect x="0" y="0" width="620" height="54" rx="10" fill="#eff6ff" stroke="#2563eb" stroke-width="1.5"/>
      <rect x="12" y="17" width="20" height="20" rx="6" fill="#2563eb"/>
      <text x="22" y="31" fill="#fff" font-size="12" font-weight="700">✓</text>
      <circle cx="60" cy="27" r="16" fill="#dbeafe"/>
      <text x="60" y="32" fill="#2563eb" font-size="10" font-weight="700" text-anchor="middle">AR</text>
      <text x="84" y="24" fill="#0f172a" font-size="13" font-weight="600">Ali Raza</text>
      <text x="84" y="42" fill="#64748b" font-size="10">📞 0301-1234567</text>
      <text x="300" y="36" fill="#2563eb" font-size="10">🛍 6 purane order</text>
      <text x="580" y="34" fill="#cbd5e1" font-size="18">›</text>
      <!-- Card 2 -->
      <rect x="0" y="62" width="620" height="54" rx="10" fill="#fff" stroke="#e2e8f0" stroke-width="1"/>
      <rect x="12" y="79" width="20" height="20" rx="6" fill="#fff" stroke="#d1d5db" stroke-width="1.5"/>
      <circle cx="60" cy="89" r="16" fill="#fce7f3"/>
      <text x="60" y="94" fill="#db2777" font-size="10" font-weight="700" text-anchor="middle">SM</text>
      <text x="84" y="86" fill="#0f172a" font-size="13" font-weight="600">Saima Maqbool</text>
      <text x="84" y="104" fill="#64748b" font-size="10">📞 0322-9876543</text>
      <text x="300" y="98" fill="#2563eb" font-size="10">🛍 12 purane order</text>
      <text x="580" y="96" fill="#cbd5e1" font-size="18">›</text>
      <!-- Card 3 -->
      <rect x="0" y="124" width="620" height="54" rx="10" fill="#fff" stroke="#e2e8f0" stroke-width="1"/>
      <rect x="12" y="141" width="20" height="20" rx="6" fill="#fff" stroke="#d1d5db" stroke-width="1.5"/>
      <circle cx="60" cy="151" r="16" fill="#dcfce7"/>
      <text x="60" y="156" fill="#16a34a" font-size="10" font-weight="700" text-anchor="middle">KH</text>
      <text x="84" y="148" fill="#0f172a" font-size="13" font-weight="600">Kamran Hassan</text>
      <text x="84" y="166" fill="#64748b" font-size="10">📞 0333-5554433</text>
      <text x="300" y="160" fill="#2563eb" font-size="10">🛍 4 purane order</text>
      <text x="580" y="158" fill="#cbd5e1" font-size="18">›</text>
      <!-- Card 4 -->
      <rect x="0" y="186" width="620" height="54" rx="10" fill="#fff" stroke="#e2e8f0" stroke-width="1"/>
      <rect x="12" y="203" width="20" height="20" rx="6" fill="#fff" stroke="#d1d5db" stroke-width="1.5"/>
      <circle cx="60" cy="213" r="16" fill="#fef3c7"/>
      <text x="60" y="218" fill="#d97706" font-size="10" font-weight="700" text-anchor="middle">NB</text>
      <text x="84" y="210" fill="#0f172a" font-size="13" font-weight="600">Nadia Batool</text>
      <text x="84" y="228" fill="#64748b" font-size="10">📞 0345-2223344</text>
      <text x="300" y="222" fill="#2563eb" font-size="10">🛍 9 purane order</text>
      <text x="580" y="220" fill="#cbd5e1" font-size="18">›</text>
    </g>
    <!-- Right Sidebar in Wizard -->
    <rect x="670" y="175" width="300" height="400" rx="14" fill="#fff" stroke="#e2e8f0" stroke-width="1" filter="url(#s1)"/>
    <text x="690" y="206" fill="#0f172a" font-size="15" font-weight="600">Order Preview</text>
    <text x="690" y="230" fill="#64748b" font-size="11">Select a customer to begin</text>
    <rect x="690" y="250" width="260" height="100" rx="10" fill="#f8fafc" stroke="#e2e8f0" stroke-width="1" stroke-dasharray="4,3"/>
    <text x="820" y="288" fill="#94a3b8" font-size="12" text-anchor="middle">👤</text>
    <text x="820" y="308" fill="#94a3b8" font-size="11" text-anchor="middle">Customer name will appear here</text>
    <text x="820" y="326" fill="#94a3b8" font-size="10" text-anchor="middle">after selection</text>
    <!-- Tips box -->
    <rect x="690" y="370" width="260" height="100" rx="10" fill="#eff6ff" stroke="#bfdbfe" stroke-width="1"/>
    <text x="705" y="395" fill="#2563eb" font-size="13">💡 Tip</text>
    <text x="705" y="418" fill="#1e40af" font-size="11">Pehle se customer select karein to</text>
    <text x="705" y="435" fill="#1e40af" font-size="11">uske purane measurements aur</text>
    <text x="705" y="452" fill="#1e40af" font-size="11">orders apne aap dikh jayenge.</text>
    <!-- Next Step Button -->
    <rect x="670" y="500" width="300" height="46" rx="12" fill="#e2e8f0"/>
    <text x="820" y="528" fill="#94a3b8" font-size="13" font-weight="600" text-anchor="middle">Pehle Gahak Chunein</text>
    <!-- Bottom -->
    <rect x="0" y="815" width="1000" height="35" fill="#f8fafc"/>
    <rect x="0" y="815" width="1000" height="1" fill="#e2e8f0"/>
    <circle cx="28" cy="832" r="4" fill="#16a34a"/>
    <text x="38" y="836" fill="#64748b" font-size="11">Online — Synced</text>
    <text x="840" y="836" fill="#94a3b8" font-size="11">MeraDarzi v2.0 · Pakistan ka Tailor OS</text>
  </g>
</svg>
