<svg xmlns="http://www.w3.org/2000/svg" viewBox="0 0 1280 850" font-family="Poppins, system-ui, sans-serif">
  <defs>
    <filter id="s1" x="-5%" y="-5%" width="115%" height="115%"><feDropShadow dx="0" dy="1" stdDeviation="3" flood-opacity="0.04"/></filter>
    <filter id="s2" x="-5%" y="-5%" width="115%" height="115%"><feDropShadow dx="0" dy="2" stdDeviation="5" flood-opacity="0.06"/></filter>
  </defs>
  <rect width="1280" height="850" fill="#f0f4f8"/>
  <!-- SIDEBAR -->
  <rect x="0" y="0" width="260" height="850" fill="#0f172a"/>
  <rect x="20" y="20" width="220" height="50" rx="10" fill="#1e293b"/>
  <rect x="28" y="28" width="36" height="34" rx="8" fill="#2563eb"/>
  <text x="46" y="51" fill="#fff" font-size="16" font-weight="700" text-anchor="middle">MD</text>
  <text x="75" y="48" fill="#fff" font-size="17" font-weight="600">MeraDarzi</text>
  <text x="75" y="63" fill="#94a3b8" font-size="9">Pakistan's Tailor OS</text>
  <rect x="16" y="86" width="228" height="40" rx="10" fill="#2563eb"/>
  <text x="50" y="112" fill="#fff" font-size="13" font-weight="600">+ Naya Order</text>
  <g transform="translate(0, 145)">
    <rect x="12" y="0" width="236" height="44" rx="10" fill="transparent"/>
    <text x="50" y="27" fill="#94a3b8" font-size="13">Dashboard</text>
    <rect x="22" y="16" width="18" height="18" rx="4" fill="none" stroke="#94a3b8" stroke-width="1.8"/>
    <rect x="26" y="20" width="10" height="10" rx="2" fill="#94a3b8"/>
    <rect x="12" y="52" width="236" height="44" rx="10" fill="#2563eb"/>
    <text x="50" y="79" fill="#fff" font-size="13" font-weight="500">Orders</text>
    <rect x="22" y="68" width="18" height="18" rx="4" fill="none" stroke="#fff" stroke-width="1.8"/>
    <line x1="26" y1="72" x2="36" y2="72" stroke="#fff" stroke-width="1.8"/>
    <line x1="26" y1="77" x2="33" y2="77" stroke="#fff" stroke-width="1.8"/>
    <line x1="26" y1="82" x2="36" y2="82" stroke="#fff" stroke-width="1.8"/>
    <rect x="12" y="104" width="236" height="44" rx="10" fill="transparent"/>
    <text x="50" y="131" fill="#94a3b8" font-size="13">Customers</text>
    <circle cx="31" cy="120" r="8" fill="none" stroke="#94a3b8" stroke-width="1.8"/>
    <circle cx="31" cy="125" r="3" fill="#94a3b8"/>
    <path d="M23 134 Q31 128 39 134" fill="none" stroke="#94a3b8" stroke-width="1.8"/>
    <rect x="12" y="156" width="236" height="44" rx="10" fill="transparent"/>
    <text x="50" y="183" fill="#94a3b8" font-size="13">Payments</text>
    <rect x="24" y="170" width="14" height="14" rx="2" fill="none" stroke="#94a3b8" stroke-width="1.6"/>
    <text x="26" y="182" fill="#94a3b8" font-size="8" font-weight="700">$</text>
    <rect x="12" y="208" width="236" height="44" rx="10" fill="transparent"/>
    <text x="50" y="235" fill="#94a3b8" font-size="13">Reports</text>
    <rect x="23" y="221" width="16" height="14" rx="2" fill="none" stroke="#94a3b8" stroke-width="1.6"/>
    <line x1="26" y1="228" x2="36" y2="228" stroke="#94a3b8" stroke-width="1.2"/>
    <line x1="26" y1="232" x2="33" y2="232" stroke="#94a3b8" stroke-width="1.2"/>
    <rect x="12" y="260" width="236" height="44" rx="10" fill="transparent"/>
    <text x="50" y="287" fill="#94a3b8" font-size="13">Team</text>
    <circle cx="27" cy="276" r="3" fill="#94a3b8"/><circle cx="35" cy="276" r="3" fill="#94a3b8"/>
    <circle cx="31" cy="284" r="3" fill="#94a3b8"/>
    <rect x="12" y="312" width="236" height="44" rx="10" fill="transparent"/>
    <text x="50" y="339" fill="#94a3b8" font-size="13">Settings</text>
    <circle cx="31" cy="330" r="7" fill="none" stroke="#94a3b8" stroke-width="1.8"/>
    <rect x="28" y="327" width="6" height="6" rx="3" fill="#94a3b8"/>
  </g>
  <rect x="16" y="750" width="228" height="64" rx="12" fill="#1e293b"/>
  <circle cx="45" cy="782" r="18" fill="#2563eb"/>
  <text x="45" y="787" fill="#fff" font-size="12" font-weight="600" text-anchor="middle">AK</text>
  <text x="72" y="777" fill="#fff" font-size="13" font-weight="500">Ahmed's Tailors</text>
  <rect x="72" y="786" width="80" height="18" rx="5" fill="#1d4ed8"/>
  <text x="112" y="799" fill="#bfdbfe" font-size="9" text-anchor="middle">Professional</text>
  <!-- MAIN -->
  <g transform="translate(280,0)">
    <rect x="0" y="0" width="1000" height="64" fill="#fff"/>
    <rect x="0" y="63" width="1000" height="1" fill="#e2e8f0"/>
    <text x="28" y="28" fill="#64748b" font-size="12">Pages</text>
    <text x="72" y="28" fill="#64748b" font-size="12">/</text>
    <text x="84" y="28" fill="#0f172a" font-size="12" font-weight="600">Orders</text>
    <rect x="580" y="16" width="200" height="32" rx="16" fill="#f1f5f9" stroke="#e2e8f0" stroke-width="1"/>
    <circle cx="595" cy="32" r="4" fill="none" stroke="#94a3b8" stroke-width="1.5"/>
    <line x1="598" y1="35" x2="603" y2="40" stroke="#94a3b8" stroke-width="1.5"/>
    <text x="606" y="36" fill="#94a3b8" font-size="11">Search...</text>
    <rect x="810" y="16" width="32" height="32" rx="8" fill="#f1f5f9"/>
    <text x="826" y="37" fill="#64748b" font-size="16">🔔</text>
    <circle cx="832" cy="20" r="6" fill="#ef4444"/>
    <text x="832" y="23" fill="#fff" font-size="7" font-weight="600" text-anchor="middle">3</text>
    <!-- Orders Header -->
    <rect x="0" y="64" width="1000" height="130" fill="#fff"/>
    <rect x="0" y="193" width="1000" height="1" fill="#e2e8f0"/>
    <text x="28" y="100" fill="#0f172a" font-size="22" font-weight="700">Orders</text>
    <text x="28" y="122" fill="#64748b" font-size="13">Showing 12 of 289 orders</text>
    <!-- Actions -->
    <rect x="720" y="85" width="80" height="32" rx="8" fill="#f1f5f9" stroke="#e2e8f0" stroke-width="1"/>
    <text x="732" y="105" fill="#64748b" font-size="11">☐ Select</text>
    <rect x="810" y="85" width="72" height="32" rx="8" fill="#f1f5f9" stroke="#e2e8f0" stroke-width="1"/>
    <text x="822" y="105" fill="#64748b" font-size="11">⬇ CSV</text>
    <rect x="892" y="85" width="90" height="32" rx="8" fill="#2563eb"/>
    <text x="910" y="105" fill="#fff" font-size="11" font-weight="600">+ New Order</text>
    <!-- Search & Filter Bar -->
    <rect x="28" y="140" width="280" height="38" rx="10" fill="#f1f5f9"/>
    <circle cx="48" cy="159" r="5" fill="none" stroke="#94a3b8" stroke-width="1.5"/>
    <line x1="52" y1="163" x2="58" y2="169" stroke="#94a3b8" stroke-width="1.5"/>
    <text x="65" y="163" fill="#94a3b8" font-size="12">Search orders...</text>
    <rect x="320" y="140" width="100" height="38" rx="10" fill="#2563eb"/>
    <text x="338" y="163" fill="#fff" font-size="12">📊 Status</text>
    <!-- Quick Filter Pills -->
    <rect x="28" y="192" height="26" width="60" rx="13" fill="#2563eb"/>
    <text x="58" y="210" fill="#fff" font-size="10" font-weight="600" text-anchor="middle">📋 Sab (289)</text>
    <rect x="96" y="192" height="26" width="78" rx="13" fill="#fef2f2" stroke="#fecaca" stroke-width="1"/>
    <text x="135" y="210" fill="#dc2626" font-size="10" font-weight="600" text-anchor="middle">🔴 Deri (12)</text>
    <rect x="182" y="192" height="26" width="80" rx="13" fill="#fff" stroke="#e2e8f0" stroke-width="1"/>
    <text x="222" y="210" fill="#64748b" font-size="10" font-weight="500" text-anchor="middle">✅ Tayyar (8)</text>
    <rect x="270" y="192" height="26" width="68" rx="13" fill="#fff" stroke="#e2e8f0" stroke-width="1"/>
    <text x="304" y="210" fill="#64748b" font-size="10" font-weight="500" text-anchor="middle">📅 Aaj (16)</text>
    <rect x="346" y="192" height="26" width="105" rx="13" fill="#fff" stroke="#e2e8f0" stroke-width="1"/>
    <text x="398" y="210" fill="#64748b" font-size="10" font-weight="500" text-anchor="middle">👤 Bina Assign (3)</text>
    <!-- Orders List -->
    <g transform="translate(28, 236)">
      <!-- Card 1 - Normal -->
      <rect x="0" y="0" width="620" height="60" rx="12" fill="#fff" stroke="#e2e8f0" stroke-width="1" filter="url(#s1)"/>
      <text x="18" y="22" fill="#0f172a" font-size="13" font-weight="600">#1024</text>
      <text x="80" y="22" fill="#64748b" font-size="11">👘 Shalwar Kameez</text>
      <rect x="230" y="9" width="90" height="22" rx="11" fill="#fef3c7" stroke="#fde68a" stroke-width="1"/>
      <text x="275" y="24" fill="#d97706" font-size="10" text-anchor="middle">✂️ Katai ▾</text>
      <text x="18" y="44" fill="#0f172a" font-size="12" font-weight="500">Ali Khan</text>
      <text x="100" y="44" fill="#2563eb" font-size="10">For: Self</text>
      <text x="240" y="44" fill="#64748b" font-size="10">Diya: Rs 500 / Rs 1,500</text>
      <rect x="420" y="9" width="85" height="22" rx="11" fill="#f1f5f9"/>
      <text x="462" y="24" fill="#64748b" font-size="10" text-anchor="middle">👤 Assign →</text>
      <text x="420" y="50" fill="#94a3b8" font-size="9">📅 Due: 15 Jun · 📷 2 photos</text>
      <!-- Card 2 - Ready -->
      <rect x="0" y="72" width="620" height="60" rx="12" fill="#fff" stroke="#e2e8f0" stroke-width="1" filter="url(#s1)"/>
      <text x="18" y="94" fill="#0f172a" font-size="13" font-weight="600">#1023</text>
      <text x="80" y="94" fill="#64748b" font-size="11">👚 Kurti</text>
      <rect x="230" y="81" width="90" height="22" rx="11" fill="#dcfce7" stroke="#bbf7d0" stroke-width="1"/>
      <text x="275" y="96" fill="#16a34a" font-size="10" text-anchor="middle">✅ Tayyar ▾</text>
      <text x="18" y="116" fill="#0f172a" font-size="12" font-weight="500">Sara Ahmed</text>
      <text x="108" y="116" fill="#2563eb" font-size="10">For: Self</text>
      <text x="240" y="116" fill="#64748b" font-size="10">Diya: Rs 2,000 / Rs 3,200</text>
      <rect x="420" y="81" width="75" height="22" rx="11" fill="#16a34a"/>
      <text x="457" y="96" fill="#fff" font-size="10" text-anchor="middle">💬 WhatsApp</text>
      <text x="420" y="122" fill="#94a3b8" font-size="9">📅 Due: 13 Jun</text>
      <!-- Card 3 - Overdue/Late -->
      <rect x="0" y="144" width="620" height="60" rx="12" fill="#fffbeb" stroke="#fde68a" stroke-width="1" filter="url(#s1)"/>
      <text x="18" y="166" fill="#0f172a" font-size="13" font-weight="600">#1022</text>
      <text x="80" y="166" fill="#64748b" font-size="11">🎩 Sherwani</text>
      <rect x="230" y="153" width="90" height="22" rx="11" fill="#dbeafe" stroke="#bfdbfe" stroke-width="1"/>
      <text x="275" y="168" fill="#2563eb" font-size="10" text-anchor="middle">🧵 Silai ▾</text>
      <text x="18" y="188" fill="#0f172a" font-size="12" font-weight="500">Usman Malik</text>
      <text x="115" y="188" fill="#2563eb" font-size="10">For: Self</text>
      <text x="240" y="188" fill="#64748b" font-size="10">Diya: Rs 1,000 / Rs 2,500</text>
      <rect x="420" y="153" width="85" height="22" rx="11" fill="#f1f5f9"/>
      <text x="462" y="168" fill="#64748b" font-size="10" text-anchor="middle">👤 Assign →</text>
      <text x="420" y="192" fill="#ef4444" font-size="9" font-weight="600">🔴 Due: 10 Jun · 2 din late</text>
      <!-- Card 4 -->
      <rect x="0" y="216" width="620" height="60" rx="12" fill="#fff" stroke="#e2e8f0" stroke-width="1" filter="url(#s1)"/>
      <text x="18" y="238" fill="#0f172a" font-size="13" font-weight="600">#1021</text>
      <text x="80" y="238" fill="#64748b" font-size="11">👕 Kurta</text>
      <rect x="230" y="225" width="90" height="22" rx="11" fill="#fef3c7" stroke="#fde68a" stroke-width="1"/>
      <text x="275" y="240" fill="#d97706" font-size="10" text-anchor="middle">📋 Kapra Mila ▾</text>
      <text x="18" y="260" fill="#0f172a" font-size="12" font-weight="500">Fatima Bibi</text>
      <text x="100" y="260" fill="#2563eb" font-size="10">For: Daughter</text>
      <text x="248" y="260" fill="#64748b" font-size="10">Rs 1,200 / Rs 1,200</text>
      <text x="400" y="256" fill="#16a34a" font-size="11" font-weight="600">✓ Poora Mila</text>
      <text x="420" y="272" fill="#94a3b8" font-size="9">📅 Due: 18 Jun</text>
      <!-- Card 5 -->
      <rect x="0" y="288" width="620" height="60" rx="12" fill="#fff" stroke="#e2e8f0" stroke-width="1" filter="url(#s1)"/>
      <text x="18" y="310" fill="#0f172a" font-size="13" font-weight="600">#1020</text>
      <text x="80" y="310" fill="#64748b" font-size="11">👖 Trouser</text>
      <rect x="230" y="297" width="90" height="22" rx="11" fill="#f3e8ff" stroke="#e9d5ff" stroke-width="1"/>
      <text x="275" y="312" fill="#9333ea" font-size="10" text-anchor="middle">✨ Finishing ▾</text>
      <text x="18" y="332" fill="#0f172a" font-size="12" font-weight="500">Imran Ali</text>
      <text x="100" y="332" fill="#2563eb" font-size="10">For: Self</text>
      <text x="240" y="332" fill="#64748b" font-size="10">Diya: Rs 300 / Rs 800</text>
      <rect x="420" y="297" width="85" height="22" rx="11" fill="#2563eb"/>
      <text x="462" y="312" fill="#fff" font-size="10" text-anchor="middle">Assigned: Shahid</text>
      <text x="420" y="336" fill="#94a3b8" font-size="9">📅 Due: 14 Jun</text>
      <!-- Card 6 -->
      <rect x="0" y="360" width="620" height="60" rx="12" fill="#fff" stroke="#e2e8f0" stroke-width="1" filter="url(#s1)"/>
      <text x="18" y="382" fill="#0f172a" font-size="13" font-weight="600">#1019</text>
      <text x="80" y="382" fill="#64748b" font-size="11">🧥 Blazer</text>
      <rect x="230" y="369" width="90" height="22" rx="11" fill="#e2e8f0" stroke="#cbd5e1" stroke-width="1"/>
      <text x="275" y="384" fill="#64748b" font-size="10" text-anchor="middle">📦 De Diya ▾</text>
      <text x="18" y="404" fill="#0f172a" font-size="12" font-weight="500">Kamran Hassan</text>
      <text x="125" y="404" fill="#2563eb" font-size="10">For: Self</text>
      <text x="240" y="404" fill="#64748b" font-size="10">Diya: Rs 4,000 / Rs 4,000</text>
      <text x="400" y="400" fill="#16a34a" font-size="11" font-weight="600">✓ Poora Mila</text>
      <text x="420" y="416" fill="#94a3b8" font-size="9">📅 Delivered: 11 Jun</text>
    </g>
    <!-- Right Panel Summary -->
    <rect x="670" y="80" width="300" height="680" rx="14" fill="#fff" stroke="#e2e8f0" stroke-width="1" filter="url(#s2)"/>
    <text x="690" y="112" fill="#0f172a" font-size="16" font-weight="600">Order Summary</text>
    <!-- Status Pie -->
    <rect x="690" y="130" width="260" height="180" rx="12" fill="#f8fafc" stroke="#e2e8f0" stroke-width="1"/>
    <text x="705" y="152" fill="#64748b" font-size="11" font-weight="500">By Status</text>
    <rect x="705" y="164" width="230" height="20" rx="10" fill="#e2e8f0"/>
    <rect x="705" y="164" width="115" height="20" rx="10" fill="#3b82f6"/>
    <text x="715" y="179" fill="#fff" font-size="9" font-weight="500">In Progress 115</text>
    <text x="880" y="179" fill="#64748b" font-size="9">Received 89</text>
    <rect x="705" y="190" width="230" height="20" rx="10" fill="#e2e8f0"/>
    <rect x="705" y="190" width="40" height="20" rx="10" fill="#16a34a"/>
    <text x="715" y="205" fill="#fff" font-size="9" font-weight="500">Ready 40</text>
    <text x="880" y="205" fill="#64748b" font-size="9">Finishing 28</text>
    <rect x="705" y="216" width="230" height="20" rx="10" fill="#e2e8f0"/>
    <rect x="705" y="216" width="17" height="20" rx="10" fill="#ef4444"/>
    <text x="715" y="231" fill="#fff" font-size="9" font-weight="500">Cancelled 17</text>
    <text x="880" y="231" fill="#64748b" font-size="9">Delivered 289 total</text>
    <!-- Recent Activity -->
    <text x="690" y="340" fill="#0f172a" font-size="14" font-weight="600">Recent Activity</text>
    <rect x="690" y="355" width="260" height="46" rx="10" fill="#f8fafc"/>
    <text x="705" y="373" fill="#0f172a" font-size="12" font-weight="500">✅ #1023 marked Tayyar</text>
    <text x="705" y="391" fill="#94a3b8" font-size="10">2 minutes ago by Ahmed</text>
    <rect x="690" y="408" width="260" height="46" rx="10" fill="#f8fafc"/>
    <text x="705" y="426" fill="#0f172a" font-size="12" font-weight="500">✂️ #1024 moved to Katai</text>
    <text x="705" y="444" fill="#94a3b8" font-size="10">15 minutes ago by Shahid</text>
    <rect x="690" y="461" width="260" height="46" rx="10" fill="#f8fafc"/>
    <text x="705" y="479" fill="#0f172a" font-size="12" font-weight="500">🆕 #1025 created for Ali Raza</text>
    <text x="705" y="497" fill="#94a3b8" font-size="10">1 hour ago by Ahmed</text>
    <rect x="690" y="514" width="260" height="46" rx="10" fill="#f8fafc"/>
    <text x="705" y="532" fill="#0f172a" font-size="12" font-weight="500">💵 #1018 payment of Rs 500</text>
    <text x="705" y="550" fill="#94a3b8" font-size="10">2 hours ago</text>
    <!-- Top Karigars -->
    <text x="690" y="590" fill="#0f172a" font-size="14" font-weight="600">Top Karigars</text>
    <rect x="690" y="605" width="260" height="36" rx="8" fill="#f8fafc"/>
    <circle cx="710" cy="623" r="12" fill="#dbeafe"/>
    <text x="710" y="627" fill="#2563eb" font-size="9" font-weight="600" text-anchor="middle">SH</text>
    <text x="730" y="621" fill="#0f172a" font-size="11" font-weight="500">Shahid</text>
    <text x="730" y="635" fill="#16a34a" font-size="9">12 orders this month</text>
    <rect x="690" y="647" width="260" height="36" rx="8" fill="#f8fafc"/>
    <circle cx="710" cy="665" r="12" fill="#dcfce7"/>
    <text x="710" y="669" fill="#16a34a" font-size="9" font-weight="600" text-anchor="middle">MB</text>
    <text x="730" y="663" fill="#0f172a" font-size="11" font-weight="500">Mubarak</text>
    <text x="730" y="677" fill="#16a34a" font-size="9">10 orders this month</text>
    <rect x="690" y="689" width="260" height="36" rx="8" fill="#f8fafc"/>
    <circle cx="710" cy="707" r="12" fill="#fef3c7"/>
    <text x="710" y="711" fill="#d97706" font-size="9" font-weight="600" text-anchor="middle">IR</text>
    <text x="730" y="705" fill="#0f172a" font-size="11" font-weight="500">Irfan</text>
    <text x="730" y="719" fill="#64748b" font-size="9">8 orders this month</text>
    <!-- Bottom -->
    <rect x="0" y="815" width="1000" height="35" fill="#f8fafc"/>
    <rect x="0" y="815" width="1000" height="1" fill="#e2e8f0"/>
    <circle cx="28" cy="832" r="4" fill="#16a34a"/>
    <text x="38" y="836" fill="#64748b" font-size="11">Online — Synced</text>
    <text x="840" y="836" fill="#94a3b8" font-size="11">MeraDarzi v2.0 · Pakistan ka Tailor OS</text>
  </g>
</svg>
