<svg xmlns="http://www.w3.org/2000/svg" viewBox="0 0 1280 850" font-family="Poppins, system-ui, sans-serif">
  <defs>
    <filter id="s1" x="-5%" y="-5%" width="115%" height="115%"><feDropShadow dx="0" dy="2" stdDeviation="4" flood-opacity="0.05"/></filter>
    <filter id="s2" x="-5%" y="-5%" width="115%" height="115%"><feDropShadow dx="0" dy="4" stdDeviation="8" flood-opacity="0.08"/></filter>
    <filter id="s3" x="-5%" y="-5%" width="115%" height="115%"><feDropShadow dx="0" dy="-2" stdDeviation="6" flood-opacity="0.1"/></filter>
    <linearGradient id="hdr" x1="0" y1="0" x2="1" y2="1">
      <stop offset="0%" stop-color="#1e3a5f"/><stop offset="100%" stop-color="#1e40af"/>
    </linearGradient>
    <linearGradient id="chart" x1="0" y1="0" x2="0" y2="1">
      <stop offset="0%" stop-color="#3b82f6" stop-opacity="0.2"/>
      <stop offset="100%" stop-color="#3b82f6" stop-opacity="0.01"/>
    </linearGradient>
  </defs>
  <rect width="1280" height="850" fill="#f0f4f8"/>
  <!-- SIDEBAR -->
  <rect x="0" y="0" width="260" height="850" fill="#0f172a"/>
  <rect x="20" y="20" width="220" height="50" rx="10" fill="#1e293b"/>
  <rect x="28" y="28" width="36" height="34" rx="8" fill="#2563eb"/>
  <text x="46" y="51" fill="#fff" font-size="16" font-weight="700" text-anchor="middle">MD</text>
  <text x="75" y="48" fill="#fff" font-size="17" font-weight="600">MeraDarzi</text>
  <text x="75" y="63" fill="#94a3b8" font-size="9">Pakistan's Tailor OS</text>
  <!-- New Order Quick Action -->
  <rect x="16" y="86" width="228" height="40" rx="10" fill="#2563eb"/>
  <text x="50" y="112" fill="#fff" font-size="13" font-weight="600">+ Naya Order</text>
  <!-- Nav -->
  <g transform="translate(0, 145)">
    <rect x="12" y="0" width="236" height="44" rx="10" fill="#2563eb"/>
    <rect x="22" y="13" width="18" height="18" rx="4" fill="none" stroke="#fff" stroke-width="1.8"/>
    <rect x="26" y="17" width="10" height="10" rx="2" fill="#fff"/>
    <text x="50" y="27" fill="#fff" font-size="13" font-weight="500">Dashboard</text>
    <rect x="12" y="52" width="236" height="44" rx="10" fill="transparent"/>
    <text x="50" y="79" fill="#94a3b8" font-size="13">Orders</text>
    <rect x="22" y="68" width="18" height="18" rx="4" fill="none" stroke="#94a3b8" stroke-width="1.8"/>
    <line x1="26" y1="72" x2="36" y2="72" stroke="#94a3b8" stroke-width="1.8"/>
    <line x1="26" y1="77" x2="33" y2="77" stroke="#94a3b8" stroke-width="1.8"/>
    <line x1="26" y1="82" x2="36" y2="82" stroke="#94a3b8" stroke-width="1.8"/>
    <rect x="12" y="104" width="236" height="44" rx="10" fill="transparent"/>
    <text x="50" y="131" fill="#94a3b8" font-size="13">Customers</text>
    <circle cx="31" cy="120" r="8" fill="none" stroke="#94a3b8" stroke-width="1.8"/>
    <circle cx="31" cy="125" r="3" fill="#94a3b8"/>
    <path d="M23 134 Q31 128 39 134" fill="none" stroke="#94a3b8" stroke-width="1.8"/>
    <rect x="12" y="156" width="236" height="44" rx="10" fill="transparent"/>
    <text x="50" y="183" fill="#94a3b8" font-size="13">Payments</text>
    <rect x="24" y="170" width="14" height="14" rx="2" fill="none" stroke="#94a3b8" stroke-width="1.6"/>
    <text x="26" y="182" fill="#94a3b8" font-size="8" font-weight="700">$</text>
    <rect x="12" y="208" width="236" height="44" rx="10" fill="transparent"/>
    <text x="50" y="235" fill="#94a3b8" font-size="13">Reports</text>
    <rect x="23" y="221" width="16" height="14" rx="2" fill="none" stroke="#94a3b8" stroke-width="1.6"/>
    <line x1="26" y1="228" x2="36" y2="228" stroke="#94a3b8" stroke-width="1.2"/>
    <line x1="26" y1="232" x2="33" y2="232" stroke="#94a3b8" stroke-width="1.2"/>
    <rect x="12" y="260" width="236" height="44" rx="10" fill="transparent"/>
    <text x="50" y="287" fill="#94a3b8" font-size="13">Team</text>
    <circle cx="27" cy="276" r="3" fill="#94a3b8"/><circle cx="35" cy="276" r="3" fill="#94a3b8"/>
    <circle cx="31" cy="284" r="3" fill="#94a3b8"/>
    <rect x="12" y="312" width="236" height="44" rx="10" fill="transparent"/>
    <text x="50" y="339" fill="#94a3b8" font-size="13">Settings</text>
    <circle cx="31" cy="330" r="7" fill="none" stroke="#94a3b8" stroke-width="1.8"/>
    <rect x="28" y="327" width="6" height="6" rx="3" fill="#94a3b8"/>
  </g>
  <!-- Sidebar User -->
  <rect x="16" y="750" width="228" height="64" rx="12" fill="#1e293b"/>
  <circle cx="45" cy="782" r="18" fill="#2563eb"/>
  <text x="45" y="787" fill="#fff" font-size="12" font-weight="600" text-anchor="middle">AK</text>
  <text x="72" y="777" fill="#fff" font-size="13" font-weight="500">Ahmed's Tailors</text>
  <rect x="72" y="786" width="80" height="18" rx="5" fill="#1d4ed8"/>
  <text x="112" y="799" fill="#bfdbfe" font-size="9" text-anchor="middle">Professional</text>
  <!-- MAIN -->
  <g transform="translate(280,0)">
    <!-- Top Bar -->
    <rect x="0" y="0" width="1000" height="64" fill="#fff"/>
    <rect x="0" y="63" width="1000" height="1" fill="#e2e8f0"/>
    <text x="28" y="28" fill="#64748b" font-size="12">Pages</text>
    <text x="72" y="28" fill="#64748b" font-size="12">/</text>
    <text x="84" y="28" fill="#0f172a" font-size="12" font-weight="600">Dashboard</text>
    <rect x="580" y="16" width="200" height="32" rx="16" fill="#f1f5f9" stroke="#e2e8f0" stroke-width="1"/>
    <circle cx="595" cy="32" r="4" fill="none" stroke="#94a3b8" stroke-width="1.5"/>
    <line x1="598" y1="35" x2="603" y2="40" stroke="#94a3b8" stroke-width="1.5"/>
    <text x="606" y="36" fill="#94a3b8" font-size="11">Search...</text>
    <rect x="810" y="16" width="32" height="32" rx="8" fill="#f1f5f9"/>
    <text x="826" y="37" fill="#64748b" font-size="16">🔔</text>
    <circle cx="832" cy="20" r="6" fill="#ef4444"/>
    <text x="832" y="23" fill="#fff" font-size="7" font-weight="600" text-anchor="middle">3</text>
    <rect x="855" y="16" width="110" height="32" rx="8" fill="#f1f5f9"/>
    <text x="878" y="36" fill="#64748b" font-size="11">12 Jun 2026</text>
    <!-- Blue Gradient Header -->
    <rect x="0" y="65" width="1000" height="130" rx="0" fill="url(#hdr)"/>
    <text x="28" y="98" fill="#93c5fd" font-size="13">Assalam o Alaikum 👋</text>
    <text x="28" y="128" fill="#fff" font-size="24" font-weight="700">Ahmed's Tailors</text>
    <text x="28" y="150" fill="#93c5fd" font-size="12">Thursday, 12 June 2026 · 16 orders so far today</text>
    <rect x="840" y="90" width="60" height="22" rx="11" fill="#fff/15" stroke="#93c5fd" stroke-width="1"/>
    <text x="870" y="105" fill="#bfdbfe" font-size="10" text-anchor="middle">⭐ Pro</text>
    <rect x="912" y="90" width="60" height="22" rx="11" fill="#1d4ed8"/>
    <text x="942" y="105" fill="#bfdbfe" font-size="10" text-anchor="middle">🔔 3</text>
    <!-- Stats Cards -->
    <rect x="28" y="210" width="222" height="110" rx="14" fill="#fff" filter="url(#s1)"/>
    <rect x="48" y="228" width="36" height="36" rx="10" fill="#dbeafe"/>
    <rect x="58" y="238" width="16" height="16" rx="4" fill="none" stroke="#2563eb" stroke-width="1.8"/>
    <line x1="62" y1="242" x2="62" y2="250" stroke="#2563eb" stroke-width="1.8"/>
    <line x1="58" y1="246" x2="66" y2="246" stroke="#2563eb" stroke-width="1.8"/>
    <text x="96" y="238" fill="#2563eb" font-size="11" font-weight="500">Aaj Ke Orders</text>
    <text x="48" y="294" fill="#0f172a" font-size="28" font-weight="700">12</text>
    <text x="90" y="294" fill="#64748b" font-size="11">naye orders aaj</text>
    <rect x="262" y="210" width="222" height="110" rx="14" fill="#fff" filter="url(#s1)"/>
    <rect x="282" y="228" width="36" height="36" rx="10" fill="#dcfce7"/>
    <circle cx="300" cy="244" r="7" fill="none" stroke="#16a34a" stroke-width="2"/>
    <path d="M296 244 L299 247 L304 240" fill="none" stroke="#16a34a" stroke-width="2" stroke-linecap="round"/>
    <text x="330" y="238" fill="#16a34a" font-size="11" font-weight="500">Tayyar Hain</text>
    <text x="282" y="294" fill="#0f172a" font-size="28" font-weight="700">5</text>
    <text x="324" y="294" fill="#64748b" font-size="11">lene ke intezaar mein</text>
    <rect x="496" y="210" width="222" height="110" rx="14" fill="#fff" filter="url(#s1)"/>
    <rect x="516" y="228" width="36" height="36" rx="10" fill="#f1f5f9"/>
    <text x="534" y="254" fill="#64748b" font-size="16">💰</text>
    <text x="564" y="238" fill="#64748b" font-size="11" font-weight="500">Aaj Ki Amdani</text>
    <text x="516" y="294" fill="#0f172a" font-size="24" font-weight="700">Rs 8,450</text>
    <text x="590" y="294" fill="#64748b" font-size="11">aaj mila paisa</text>
    <rect x="730" y="210" width="222" height="110" rx="14" fill="#fff" filter="url(#s1)"/>
    <rect x="750" y="228" width="36" height="36" rx="10" fill="#fef2f2"/>
    <circle cx="768" cy="246" r="8" fill="none" stroke="#ef4444" stroke-width="1.8"/>
    <line x1="768" y1="240" x2="768" y2="247" stroke="#ef4444" stroke-width="2"/>
    <line x1="768" y1="250" x2="768" y2="251" stroke="#ef4444" stroke-width="2"/>
    <text x="798" y="238" fill="#ef4444" font-size="11" font-weight="500">Deri Wale</text>
    <text x="750" y="294" fill="#0f172a" font-size="28" font-weight="700">3</text>
    <text x="792" y="294" fill="#64748b" font-size="11">late orders</text>
    <!-- Baaki Strip -->
    <rect x="28" y="335" width="624" height="44" rx="12" fill="#eff6ff" stroke="#bfdbfe" stroke-width="1"/>
    <text x="50" y="362" fill="#2563eb" font-size="14">📈</text>
    <text x="76" y="362" fill="#1e40af" font-size="13" font-weight="600">Total Baaki Raqam</text>
    <text x="530" y="362" fill="#1e40af" font-size="15" font-weight="700">Rs 3,200</text>
    <!-- Quick Actions -->
    <rect x="28" y="390" width="292" height="36" rx="10" fill="#2563eb"/>
    <text x="48" y="413" fill="#fff" font-size="12">+ Naya Order</text>
    <rect x="330" y="390" width="292" height="36" rx="10" fill="#fff" stroke="#e2e8f0" stroke-width="1.5"/>
    <text x="350" y="413" fill="#475569" font-size="12">+ Naya Gahak</text>
    <!-- Left + Right Columns -->
    <rect x="28" y="440" width="624" height="290" rx="14" fill="#fff" filter="url(#s2)"/>
    <text x="48" y="472" fill="#0f172a" font-size="16" font-weight="600">Recent Orders</text>
    <text x="560" y="472" fill="#2563eb" font-size="12" font-weight="500">Sab Dekhein →</text>
    <!-- Order 1 -->
    <rect x="48" y="490" width="588" height="52" rx="10" fill="#f8fafc"/>
    <text x="62" y="510" fill="#0f172a" font-size="13" font-weight="600">#1024</text>
    <text x="110" y="510" fill="#64748b" font-size="11">👘 Shalwar Kameez</text>
    <rect x="280" y="497" width="95" height="22" rx="11" fill="#fef3c7" stroke="#fde68a" stroke-width="1"/>
    <text x="327" y="512" fill="#d97706" font-size="10" text-anchor="middle">✂️ Katai</text>
    <text x="62" y="530" fill="#0f172a" font-size="12" font-weight="500">Ali Khan</text>
    <text x="200" y="530" fill="#2563eb" font-size="10">For: Self</text>
    <text x="430" y="530" fill="#64748b" font-size="10">Diya: Rs 500 / Rs 1,500</text>
    <text x="62" y="540" fill="#94a3b8" font-size="9">Due: 15 Jun</text>
    <!-- Order 2 -->
    <rect x="48" y="548" width="588" height="52" rx="10" fill="#f8fafc"/>
    <text x="62" y="568" fill="#0f172a" font-size="13" font-weight="600">#1023</text>
    <text x="110" y="568" fill="#64748b" font-size="11">👚 Kurti</text>
    <rect x="280" y="555" width="95" height="22" rx="11" fill="#dcfce7" stroke="#bbf7d0" stroke-width="1"/>
    <text x="327" y="570" fill="#16a34a" font-size="10" text-anchor="middle">✅ Tayyar</text>
    <text x="62" y="588" fill="#0f172a" font-size="12" font-weight="500">Sara Ahmed</text>
    <text x="200" y="588" fill="#2563eb" font-size="10">For: Self</text>
    <text x="430" y="588" fill="#64748b" font-size="10">Diya: Rs 2,000 / Rs 3,200</text>
    <rect x="555" y="555" width="70" height="22" rx="11" fill="#16a34a"/>
    <text x="590" y="570" fill="#fff" font-size="10" text-anchor="middle">💬 WhatsApp</text>
    <text x="62" y="598" fill="#94a3b8" font-size="9">Due: 13 Jun</text>
    <!-- Order 3 -->
    <rect x="48" y="606" width="588" height="52" rx="10" fill="#fffbeb" stroke="#fde68a" stroke-width="1"/>
    <text x="62" y="626" fill="#0f172a" font-size="13" font-weight="600">#1022</text>
    <text x="110" y="626" fill="#64748b" font-size="11">🎩 Sherwani</text>
    <rect x="280" y="613" width="95" height="22" rx="11" fill="#dbeafe" stroke="#bfdbfe" stroke-width="1"/>
    <text x="327" y="628" fill="#2563eb" font-size="10" text-anchor="middle">🧵 Silai</text>
    <text x="62" y="646" fill="#0f172a" font-size="12" font-weight="500">Usman Malik</text>
    <text x="200" y="646" fill="#2563eb" font-size="10">For: Self</text>
    <text x="430" y="646" fill="#64748b" font-size="10">Diya: Rs 1,000 / Rs 2,500</text>
    <text x="62" y="656" fill="#ef4444" font-size="9" font-weight="500">🔴 2 days late</text>
    <!-- Right Sidebar -->
    <rect x="670" y="440" width="300" height="290" rx="14" fill="#fff" filter="url(#s2)"/>
    <rect x="690" y="458" width="36" height="36" rx="10" fill="#eff6ff"/>
    <text x="708" y="482" fill="#2563eb" font-size="16">📅</text>
    <text x="738" y="476" fill="#0f172a" font-size="14" font-weight="600">Subscription</text>
    <text x="738" y="494" fill="#64748b" font-size="11">Professional Plan</text>
    <text x="690" y="520" fill="#64748b" font-size="11">Renewal Date</text>
    <text x="690" y="540" fill="#0f172a" font-size="14" font-weight="600">24 June 2026</text>
    <rect x="690" y="555" width="260" height="8" rx="4" fill="#f1f5f9"/>
    <rect x="690" y="555" width="195" height="8" rx="4" fill="#2563eb"/>
    <text x="850" y="562" fill="#64748b" font-size="9">12 days left</text>
    <text x="690" y="582" fill="#64748b" font-size="11">Orders Used</text>
    <text x="690" y="600" fill="#0f172a" font-size="14" font-weight="600">287 / Unlimited</text>
    <!-- Status Legend -->
    <rect x="690" y="615" width="260" height="100" rx="10" fill="#f8fafc" stroke="#e2e8f0" stroke-width="1"/>
    <text x="705" y="636" fill="#64748b" font-size="10" font-weight="600">Order Statuses</text>
    <text x="705" y="656" fill="#d97706" font-size="10">📋 Kapra Mila</text>
    <text x="805" y="656" fill="#ea580c" font-size="10">✂️ Katai</text>
    <text x="705" y="676" fill="#2563eb" font-size="10">🧵 Silai</text>
    <text x="805" y="676" fill="#9333ea" font-size="10">✨ Finishing</text>
    <text x="705" y="696" fill="#16a34a" font-size="10">✅ Tayyar</text>
    <text x="805" y="696" fill="#64748b" font-size="10">📦 De Diya</text>
    <!-- Bottom -->
    <rect x="0" y="815" width="1000" height="35" fill="#f8fafc"/>
    <rect x="0" y="815" width="1000" height="1" fill="#e2e8f0"/>
    <circle cx="28" cy="832" r="4" fill="#16a34a"/>
    <text x="38" y="836" fill="#64748b" font-size="11">Online — Synced</text>
    <text x="840" y="836" fill="#94a3b8" font-size="11">MeraDarzi v2.0 · Pakistan ka Tailor OS</text>
  </g>
</svg>
