<svg xmlns="http://www.w3.org/2000/svg" viewBox="0 0 390 844" font-family="Poppins, system-ui, sans-serif">
  <defs>
    <filter id="s1" x="-5%" y="-5%" width="115%" height="115%"><feDropShadow dx="0" dy="1" stdDeviation="3" flood-opacity="0.05"/></filter>
    <filter id="s2" x="-5%" y="-5%" width="115%" height="115%"><feDropShadow dx="0" dy="3" stdDeviation="6" flood-opacity="0.08"/></filter>
    <linearGradient id="hdr" x1="0" y1="0" x2="1" y2="1">
      <stop offset="0%" stop-color="#1e3a5f"/><stop offset="100%" stop-color="#1e40af"/>
    </linearGradient>
    <linearGradient id="chart" x1="0" y1="0" x2="0" y2="1">
      <stop offset="0%" stop-color="#3b82f6" stop-opacity="0.2"/>
      <stop offset="100%" stop-color="#3b82f6" stop-opacity="0.01"/>
    </linearGradient>
  </defs>
  <rect x="0" y="0" width="390" height="844" fill="#f0f4f8"/>
  <!-- Status Bar -->
  <rect x="0" y="0" width="390" height="44" fill="#0f172a"/>
  <text x="20" y="28" fill="#fff" font-size="12" font-weight="600">9:41</text>
  <rect x="320" y="18" width="18" height="10" rx="2" fill="none" stroke="#fff" stroke-width="1.2"/>
  <rect x="336" y="21" width="3" height="4" rx="1" fill="#fff"/>
  <text x="350" y="28" fill="#fff" font-size="11">📶</text>
  <rect x="145" y="6" width="100" height="22" rx="11" fill="#0f172a"/>
  <rect x="170" y="12" width="50" height="10" rx="5" fill="#1e293b"/>
  <!-- App Header -->
  <rect x="0" y="44" width="390" height="52" fill="#fff"/>
  <rect x="0" y="95" width="390" height="1" fill="#e2e8f0"/>
  <line x1="20" y1="64" x2="36" y2="64" stroke="#0f172a" stroke-width="2" stroke-linecap="round"/>
  <line x1="20" y1="70" x2="32" y2="70" stroke="#0f172a" stroke-width="2" stroke-linecap="round"/>
  <text x="160" y="76" fill="#0f172a" font-size="18" font-weight="700">MeraDarzi</text>
  <rect x="340" y="56" width="30" height="30" rx="8" fill="#f1f5f9"/>
  <text x="355" y="76" fill="#64748b" font-size="16">🔔</text>
  <circle cx="360" cy="60" r="7" fill="#ef4444"/>
  <text x="360" y="64" fill="#fff" font-size="7" font-weight="600" text-anchor="middle">3</text>
  <!-- Blue Header -->
  <rect x="0" y="96" width="390" height="120" fill="url(#hdr)"/>
  <text x="16" y="120" fill="#93c5fd" font-size="12">Assalam o Alaikum 👋</text>
  <text x="16" y="148" fill="#fff" font-size="22" font-weight="700">Ahmed's Tailors</text>
  <text x="16" y="170" fill="#93c5fd" font-size="11">Thursday, 12 June 2026</text>
  <rect x="270" y="114" width="56" height="22" rx="11" fill="#1d4ed8"/>
  <text x="298" y="129" fill="#bfdbfe" font-size="9" text-anchor="middle">⭐ Pro</text>
  <!-- Scrollable Content -->
  <!-- Stats Grid 2x2 -->
  <rect x="12" y="228" width="178" height="96" rx="12" fill="#fff" filter="url(#s1)"/>
  <rect x="26" y="242" width="30" height="30" rx="8" fill="#dbeafe"/>
  <rect x="34" y="250" width="14" height="14" rx="3" fill="none" stroke="#2563eb" stroke-width="1.8"/>
  <line x1="37" y1="253" x2="37" y2="261" stroke="#2563eb" stroke-width="1.8"/>
  <line x1="34" y1="257" x2="40" y2="257" stroke="#2563eb" stroke-width="1.8"/>
  <text x="66" y="250" fill="#2563eb" font-size="10" font-weight="500">Aaj Ke Orders</text>
  <text x="26" y="304" fill="#0f172a" font-size="24" font-weight="700">12</text>
  <text x="62" y="304" fill="#64748b" font-size="10">naye orders aaj</text>
  
  <rect x="200" y="228" width="178" height="96" rx="12" fill="#fff" filter="url(#s1)"/>
  <rect x="214" y="242" width="30" height="30" rx="8" fill="#dcfce7"/>
  <circle cx="229" cy="255" r="6" fill="none" stroke="#16a34a" stroke-width="1.8"/>
  <path d="M226 256 L228 259 L232 253" fill="none" stroke="#16a34a" stroke-width="1.8" stroke-linecap="round"/>
  <text x="254" y="250" fill="#16a34a" font-size="10" font-weight="500">Tayyar Hain</text>
  <text x="214" y="304" fill="#0f172a" font-size="24" font-weight="700">5</text>
  <text x="250" y="304" fill="#64748b" font-size="10">lene ke intezaar</text>
  
  <rect x="12" y="334" width="178" height="96" rx="12" fill="#fff" filter="url(#s1)"/>
  <rect x="26" y="348" width="30" height="30" rx="8" fill="#f1f5f9"/>
  <text x="41" y="369" fill="#64748b" font-size="14">💰</text>
  <text x="66" y="356" fill="#64748b" font-size="10" font-weight="500">Aaj Ki Amdani</text>
  <text x="26" y="408" fill="#0f172a" font-size="22" font-weight="700">Rs 8,450</text>
  
  <rect x="200" y="334" width="178" height="96" rx="12" fill="#fff" filter="url(#s1)"/>
  <rect x="214" y="348" width="30" height="30" rx="8" fill="#fef2f2"/>
  <circle cx="229" cy="363" r="7" fill="none" stroke="#ef4444" stroke-width="1.8"/>
  <line x1="229" y1="358" x2="229" y2="365" stroke="#ef4444" stroke-width="2"/>
  <line x1="229" y1="368" x2="229" y2="369" stroke="#ef4444" stroke-width="2"/>
  <text x="254" y="356" fill="#ef4444" font-size="10" font-weight="500">Deri Wale</text>
  <text x="214" y="408" fill="#0f172a" font-size="24" font-weight="700">3</text>
  
  <!-- Baaki Strip -->
  <rect x="12" y="444" width="366" height="40" rx="10" fill="#eff6ff" stroke="#bfdbfe" stroke-width="1"/>
  <text x="28" y="470" fill="#2563eb" font-size="14">📈</text>
  <text x="50" y="470" fill="#1e40af" font-size="12" font-weight="600">Total Baaki: Rs 3,200</text>
  <text x="340" y="470" fill="#2563eb" font-size="14">›</text>
  
  <!-- Quick Actions -->
  <rect x="12" y="496" width="178" height="40" rx="10" fill="#2563eb"/>
  <text x="30" y="521" fill="#fff" font-size="12" font-weight="600">+ Naya Order</text>
  <rect x="200" y="496" width="178" height="40" rx="10" fill="#fff" stroke="#e2e8f0" stroke-width="1.5"/>
  <text x="218" y="521" fill="#475569" font-size="12" font-weight="500">+ Naya Gahak</text>

  <!-- Recent Orders -->
  <text x="16" y="560" fill="#0f172a" font-size="15" font-weight="600">Recent Orders</text>
  <text x="300" y="560" fill="#2563eb" font-size="11" font-weight="500">Sab Dekhein →</text>
  
  <!-- Order 1 -->
  <rect x="12" y="575" width="366" height="48" rx="10" fill="#fff" stroke="#e2e8f0" stroke-width="1" filter="url(#s1)"/>
  <text x="24" y="593" fill="#0f172a" font-size="12" font-weight="600">#1024</text>
  <text x="72" y="593" fill="#64748b" font-size="10">👘 Shalwar Kameez</text>
  <rect x="220" y="581" width="70" height="20" rx="10" fill="#fef3c7"/>
  <text x="255" y="595" fill="#d97706" font-size="9" text-anchor="middle">✂️ Katai</text>
  <text x="24" y="614" fill="#0f172a" font-size="11" font-weight="500">Ali Khan</text>
  <text x="110" y="614" fill="#64748b" font-size="9">Diya: Rs 500 / Rs 1,500</text>
  <text x="280" y="614" fill="#94a3b8" font-size="9">Due: 15 Jun</text>
  
  <!-- Order 2 -->
  <rect x="12" y="630" width="366" height="48" rx="10" fill="#fff" stroke="#e2e8f0" stroke-width="1" filter="url(#s1)"/>
  <text x="24" y="648" fill="#0f172a" font-size="12" font-weight="600">#1023</text>
  <text x="72" y="648" fill="#64748b" font-size="10">👚 Kurti</text>
  <rect x="220" y="636" width="70" height="20" rx="10" fill="#dcfce7"/>
  <text x="255" y="650" fill="#16a34a" font-size="9" text-anchor="middle">✅ Tayyar</text>
  <text x="24" y="669" fill="#0f172a" font-size="11" font-weight="500">Sara Ahmed</text>
  <text x="110" y="669" fill="#64748b" font-size="9">Diya: Rs 2,000 / Rs 3,200</text>
  <text x="300" y="669" fill="#16a34a" font-size="9" font-weight="600">💬 WhatsApp</text>
  
  <!-- Order 3 - Overdue -->
  <rect x="12" y="685" width="366" height="48" rx="10" fill="#fffbeb" stroke="#fde68a" stroke-width="1" filter="url(#s1)"/>
  <text x="24" y="703" fill="#0f172a" font-size="12" font-weight="600">#1022</text>
  <text x="72" y="703" fill="#64748b" font-size="10">🎩 Sherwani</text>
  <rect x="220" y="691" width="70" height="20" rx="10" fill="#dbeafe"/>
  <text x="255" y="705" fill="#2563eb" font-size="9" text-anchor="middle">🧵 Silai</text>
  <text x="24" y="724" fill="#0f172a" font-size="11" font-weight="500">Usman Malik</text>
  <text x="110" y="724" fill="#ef4444" font-size="9" font-weight="500">🔴 2 din late!</text>
  <text x="280" y="724" fill="#64748b" font-size="9">Rs 1,000 / Rs 2,500</text>

  <!-- Bottom Nav -->
  <rect x="0" y="790" width="390" height="54" fill="#fff" filter="url(#s2)"/>
  <rect x="0" y="789" width="390" height="1" fill="#e2e8f0"/>
  <rect x="10" y="796" width="55" height="42" rx="8" fill="#eff6ff"/>
  <rect x="30" y="800" width="14" height="14" rx="3" fill="none" stroke="#2563eb" stroke-width="1.8"/>
  <rect x="34" y="804" width="7" height="7" rx="1.5" fill="#2563eb"/>
  <text x="37" y="830" fill="#2563eb" font-size="9" text-anchor="middle" font-weight="600">Home</text>
  
  <text x="85" y="822" fill="#94a3b8" font-size="18" text-anchor="middle">📋</text>
  <text x="85" y="830" fill="#94a3b8" font-size="9" text-anchor="middle">Orders</text>
  
  <circle cx="158" cy="808" r="20" fill="#2563eb"/>
  <line x1="150" y1="808" x2="166" y2="808" stroke="#fff" stroke-width="2.5" stroke-linecap="round"/>
  <line x1="158" y1="800" x2="158" y2="816" stroke="#fff" stroke-width="2.5" stroke-linecap="round"/>
  
  <text x="240" y="822" fill="#94a3b8" font-size="17" text-anchor="middle">👥</text>
  <text x="240" y="830" fill="#94a3b8" font-size="9" text-anchor="middle">Customers</text>
  
  <text x="320" y="822" fill="#94a3b8" font-size="17" text-anchor="middle">⚙️</text>
  <text x="320" y="830" fill="#94a3b8" font-size="9" text-anchor="middle">Settings</text>
  
  <rect x="130" y="838" width="130" height="5" rx="2.5" fill="#0f172a"/>
</svg>
