<svg xmlns="http://www.w3.org/2000/svg" viewBox="0 0 390 844" font-family="Poppins, system-ui, sans-serif">
  <defs>
    <filter id="s1" x="-5%" y="-5%" width="115%" height="115%"><feDropShadow dx="0" dy="1" stdDeviation="3" flood-opacity="0.04"/></filter>
  </defs>
  <rect x="0" y="0" width="390" height="844" fill="#f0f4f8"/>
  <rect x="0" y="0" width="390" height="44" fill="#0f172a"/>
  <text x="20" y="28" fill="#fff" font-size="12" font-weight="600">9:41</text>
  <rect x="320" y="18" width="18" height="10" rx="2" fill="none" stroke="#fff" stroke-width="1.2"/>
  <rect x="336" y="21" width="3" height="4" rx="1" fill="#fff"/>
  <text x="350" y="28" fill="#fff" font-size="11">📶</text>
  <rect x="145" y="6" width="100" height="22" rx="11" fill="#0f172a"/>
  <rect x="170" y="12" width="50" height="10" rx="5" fill="#1e293b"/>
  <!-- Step Indicator Header -->
  <rect x="0" y="44" width="390" height="80" fill="#fff"/>
  <rect x="0" y="123" width="390" height="1" fill="#e2e8f0"/>
  <line x1="20" y1="64" x2="36" y2="64" stroke="#0f172a" stroke-width="2" stroke-linecap="round"/>
  <line x1="20" y1="70" x2="32" y2="70" stroke="#0f172a" stroke-width="2" stroke-linecap="round"/>
  <text x="16" y="88" fill="#64748b" font-size="10">Step 2 of 3</text>
  <text x="16" y="108" fill="#0f172a" font-size="17" font-weight="700">Kapra &amp; Nap</text>
  <rect x="16" y="116" width="80" height="3" rx="1.5" fill="#16a34a"/>
  <rect x="102" y="116" width="80" height="3" rx="1.5" fill="#2563eb"/>
  <rect x="188" y="116" width="80" height="3" rx="1.5" fill="#e2e8f0"/>
  <text x="16" y="134" fill="#16a34a" font-size="9" font-weight="500">✓ Gahak Chunein</text>
  <text x="102" y="134" fill="#2563eb" font-size="9" font-weight="600">2 Kapra &amp; Nap</text>
  <text x="188" y="134" fill="#94a3b8" font-size="9">3 Qeemat &amp; Tarikh</text>
  <!-- Recipient -->
  <text x="16" y="156" fill="#0f172a" font-size="13" font-weight="600">Ye Order Kis Ke Liye Hai?</text>
  <g transform="translate(12, 165)">
    <rect x="0" y="0" width="88" height="42" rx="8" fill="#2563eb"/>
    <text x="44" y="22" fill="#fff" font-size="16" text-anchor="middle">👤</text>
    <text x="44" y="37" fill="#fff" font-size="9" text-anchor="middle" font-weight="600">Self</text>
    <rect x="96" y="0" width="88" height="42" rx="8" fill="#fff" stroke="#e2e8f0" stroke-width="1"/>
    <text x="140" y="22" fill="#64748b" font-size="16" text-anchor="middle">👩</text>
    <text x="140" y="37" fill="#64748b" font-size="9" text-anchor="middle">Wife</text>
    <rect x="192" y="0" width="88" height="42" rx="8" fill="#fff" stroke="#e2e8f0" stroke-width="1"/>
    <text x="236" y="22" fill="#64748b" font-size="16" text-anchor="middle">👦</text>
    <text x="236" y="37" fill="#64748b" font-size="9" text-anchor="middle">Son</text>
    <rect x="288" y="0" width="88" height="42" rx="8" fill="#fff" stroke="#e2e8f0" stroke-width="1"/>
    <text x="332" y="22" fill="#64748b" font-size="16" text-anchor="middle">👧</text>
    <text x="332" y="37" fill="#64748b" font-size="9" text-anchor="middle">Daughter</text>
  </g>
  <!-- Garment -->
  <text x="16" y="230" fill="#0f172a" font-size="13" font-weight="600">Kapra Kaisa Hai?</text>
  <g transform="translate(12, 240)">
    <rect x="0" y="0" width="69" height="58" rx="8" fill="#dbeafe" stroke="#2563eb" stroke-width="1.5"/>
    <text x="34" y="24" fill="#2563eb" font-size="18" text-anchor="middle">👘</text>
    <text x="34" y="40" fill="#2563eb" font-size="8" text-anchor="middle" font-weight="600">Shalwar</text>
    <text x="34" y="50" fill="#60a5fa" font-size="7" text-anchor="middle">Kameez</text>
    <rect x="77" y="0" width="69" height="58" rx="8" fill="#fff" stroke="#e2e8f0" stroke-width="1"/>
    <text x="111" y="24" fill="#64748b" font-size="18" text-anchor="middle">👕</text>
    <text x="111" y="42" fill="#64748b" font-size="8" text-anchor="middle">Kurta</text>
    <rect x="154" y="0" width="69" height="58" rx="8" fill="#fff" stroke="#e2e8f0" stroke-width="1"/>
    <text x="188" y="24" fill="#64748b" font-size="18" text-anchor="middle">👚</text>
    <text x="188" y="42" fill="#64748b" font-size="8" text-anchor="middle">Kurti</text>
    <rect x="231" y="0" width="69" height="58" rx="8" fill="#fff" stroke="#e2e8f0" stroke-width="1"/>
    <text x="265" y="24" fill="#64748b" font-size="18" text-anchor="middle">👕</text>
    <text x="265" y="42" fill="#64748b" font-size="8" text-anchor="middle">Shirt</text>
    <rect x="308" y="0" width="69" height="58" rx="8" fill="#fff" stroke="#e2e8f0" stroke-width="1"/>
    <text x="342" y="24" fill="#64748b" font-size="18" text-anchor="middle">🎩</text>
    <text x="342" y="42" fill="#64748b" font-size="8" text-anchor="middle">Sherwani</text>
  </g>
  <!-- Urgent Toggle -->
  <rect x="12" y="310" width="200" height="32" rx="8" fill="#fffbeb" stroke="#fde68a" stroke-width="1"/>
  <text x="30" y="332" fill="#d97706" font-size="12">🔴</text>
  <text x="48" y="332" fill="#d97706" font-size="11" font-weight="500">Urgent Hai?</text>
  <rect x="168" y="317" width="30" height="16" rx="8" fill="#d97706"/>
  <circle cx="182" cy="325" r="6" fill="#fff"/>
  <!-- Measurements Card -->
  <rect x="12" y="354" width="366" height="210" rx="12" fill="#fff" stroke="#e2e8f0" stroke-width="1" filter="url(#s1)"/>
  <text x="28" y="380" fill="#0f172a" font-size="13" font-weight="600">👘 Shalwar Kameez — Nap</text>
  <rect x="300" y="368" width="36" height="18" rx="5" fill="#dbeafe"/>
  <text x="318" y="381" fill="#2563eb" font-size="8" text-anchor="middle" font-weight="600">5/7</text>
  <!-- Kameez -->
  <text x="28" y="404" fill="#64748b" font-size="10" font-weight="500">Kameez Nap</text>
  <rect x="28" y="410" width="165" height="32" rx="6" fill="#f8fafc" stroke="#e2e8f0" stroke-width="1"/>
  <text x="40" y="430" fill="#64748b" font-size="10">Lambai (Length)</text>
  <text x="158" y="430" fill="#0f172a" font-size="11" font-weight="600">42</text>
  <text x="175" y="430" fill="#94a3b8" font-size="9">in</text>
  <rect x="200" y="410" width="165" height="32" rx="6" fill="#f8fafc" stroke="#e2e8f0" stroke-width="1"/>
  <text x="212" y="430" fill="#64748b" font-size="10">Sena (Chest)</text>
  <text x="330" y="430" fill="#0f172a" font-size="11" font-weight="600">44</text>
  <text x="347" y="430" fill="#94a3b8" font-size="9">in</text>
  <rect x="28" y="448" width="165" height="32" rx="6" fill="#f8fafc" stroke="#e2e8f0" stroke-width="1"/>
  <text x="40" y="468" fill="#64748b" font-size="10">Moa (Shoulder)</text>
  <text x="158" y="468" fill="#0f172a" font-size="11" font-weight="600">20</text>
  <text x="175" y="468" fill="#94a3b8" font-size="9">in</text>
  <rect x="200" y="448" width="165" height="32" rx="6" fill="#f8fafc" stroke="#e2e8f0" stroke-width="1"/>
  <text x="212" y="468" fill="#64748b" font-size="10">Bazu (Sleeve)</text>
  <text x="330" y="468" fill="#0f172a" font-size="11" font-weight="600">25</text>
  <text x="347" y="468" fill="#94a3b8" font-size="9">in</text>
  <!-- Shalwar -->
  <text x="28" y="498" fill="#64748b" font-size="10" font-weight="500">Shalwar Nap</text>
  <rect x="28" y="505" width="165" height="32" rx="6" fill="#f8fafc" stroke="#e2e8f0" stroke-width="1"/>
  <text x="40" y="525" fill="#64748b" font-size="10">Lambai (Length)</text>
  <text x="158" y="525" fill="#0f172a" font-size="11" font-weight="600">38</text>
  <text x="175" y="525" fill="#94a3b8" font-size="9">in</text>
  <rect x="200" y="505" width="165" height="32" rx="6" fill="#f8fafc" stroke="#e2e8f0" stroke-width="1"/>
  <text x="212" y="525" fill="#64748b" font-size="10">Paacha (Bottom)</text>
  <text x="330" y="525" fill="#0f172a" font-size="11" font-weight="600">26</text>
  <text x="347" y="525" fill="#94a3b8" font-size="9">in</text>
  <!-- Style Reference -->
  <rect x="12" y="576" width="366" height="110" rx="12" fill="#fff" stroke="#e2e8f0" stroke-width="1" filter="url(#s1)"/>
  <text x="28" y="600" fill="#0f172a" font-size="13" font-weight="600">Style Reference</text>
  <text x="28" y="622" fill="#64748b" font-size="10">Kameez Style</text>
  <rect x="28" y="632" width="72" height="28" rx="6" fill="#2563eb"/>
  <text x="64" y="650" fill="#fff" font-size="9" text-anchor="middle" font-weight="600">Slim ✅</text>
  <rect x="108" y="632" width="72" height="28" rx="6" fill="#fff" stroke="#e2e8f0" stroke-width="1"/>
  <text x="144" y="650" fill="#64748b" font-size="9" text-anchor="middle">Regular</text>
  <rect x="188" y="632" width="72" height="28" rx="6" fill="#fff" stroke="#e2e8f0" stroke-width="1"/>
  <text x="224" y="650" fill="#64748b" font-size="9" text-anchor="middle">Loose</text>
  <text x="28" y="680" fill="#64748b" font-size="10">Shalwar Style</text>
  <!-- Special Instructions -->
  <rect x="12" y="698" width="366" height="50" rx="10" fill="#f8fafc" stroke="#e2e8f0" stroke-width="1"/>
  <text x="24" y="720" fill="#cbd5e1" font-size="10">Koi khaas baat? Jaise: pocket, button... (optional)</text>
  <!-- Sticky Next Button -->
  <rect x="0" y="740" width="390" height="50" fill="#fff" filter="url(#s1)"/>
  <rect x="0" y="739" width="390" height="1" fill="#e2e8f0"/>
  <rect x="16" y="752" width="358" height="36" rx="10" fill="#2563eb"/>
  <text x="195" y="775" fill="#fff" font-size="13" font-weight="600" text-anchor="middle">Payment Details →</text>
  <!-- Bottom Nav -->
  <rect x="0" y="790" width="390" height="54" fill="#fff" filter="url(#s1)"/>
  <rect x="0" y="789" width="390" height="1" fill="#e2e8f0"/>
  <text x="37" y="822" fill="#94a3b8" font-size="17" text-anchor="middle">🏠</text>
  <text x="37" y="830" fill="#94a3b8" font-size="9" text-anchor="middle">Home</text>
  <rect x="68" y="796" width="55" height="42" rx="8" fill="#eff6ff"/>
  <text x="85" y="822" fill="#2563eb" font-size="17" text-anchor="middle">📋</text>
  <text x="85" y="830" fill="#2563eb" font-size="9" text-anchor="middle" font-weight="600">Orders</text>
  <circle cx="158" cy="808" r="20" fill="#2563eb"/>
  <line x1="150" y1="808" x2="166" y2="808" stroke="#fff" stroke-width="2.5" stroke-linecap="round"/>
  <line x1="158" y1="800" x2="158" y2="816" stroke="#fff" stroke-width="2.5" stroke-linecap="round"/>
  <text x="240" y="822" fill="#94a3b8" font-size="17" text-anchor="middle">👥</text>
  <text x="240" y="830" fill="#94a3b8" font-size="9" text-anchor="middle">Customers</text>
  <text x="320" y="822" fill="#94a3b8" font-size="17" text-anchor="middle">⚙️</text>
  <text x="320" y="830" fill="#94a3b8" font-size="9" text-anchor="middle">Settings</text>
  <rect x="130" y="838" width="130" height="5" rx="2.5" fill="#0f172a"/>
</svg>
