<svg xmlns="http://www.w3.org/2000/svg" viewBox="0 0 390 844" font-family="Poppins, system-ui, sans-serif">
  <defs>
    <filter id="s1" x="-5%" y="-5%" width="115%" height="115%"><feDropShadow dx="0" dy="1" stdDeviation="3" flood-opacity="0.04"/></filter>
  </defs>
  <rect x="0" y="0" width="390" height="844" fill="#f0f4f8"/>
  <rect x="0" y="0" width="390" height="44" fill="#0f172a"/>
  <text x="20" y="28" fill="#fff" font-size="12" font-weight="600">9:41</text>
  <rect x="320" y="18" width="18" height="10" rx="2" fill="none" stroke="#fff" stroke-width="1.2"/>
  <rect x="336" y="21" width="3" height="4" rx="1" fill="#fff"/>
  <text x="350" y="28" fill="#fff" font-size="11">📶</text>
  <rect x="145" y="6" width="100" height="22" rx="11" fill="#0f172a"/>
  <rect x="170" y="12" width="50" height="10" rx="5" fill="#1e293b"/>
  <!-- Header -->
  <rect x="0" y="44" width="390" height="52" fill="#fff"/>
  <rect x="0" y="95" width="390" height="1" fill="#e2e8f0"/>
  <line x1="20" y1="64" x2="36" y2="64" stroke="#0f172a" stroke-width="2" stroke-linecap="round"/>
  <line x1="20" y1="70" x2="32" y2="70" stroke="#0f172a" stroke-width="2" stroke-linecap="round"/>
  <text x="120" y="76" fill="#0f172a" font-size="18" font-weight="700">Customers</text>
  <rect x="340" y="56" width="30" height="30" rx="8" fill="#f1f5f9"/>
  <text x="355" y="76" fill="#64748b" font-size="16">🔔</text>
  <circle cx="360" cy="60" r="7" fill="#ef4444"/>
  <text x="360" y="64" fill="#fff" font-size="7" font-weight="600" text-anchor="middle">3</text>
  <!-- Search Header -->
  <rect x="0" y="96" width="390" height="100" fill="#fff"/>
  <text x="16" y="120" fill="#64748b" font-size="11">Showing 48 customers</text>
  <rect x="240" y="105" width="65" height="30" rx="8" fill="#f1f5f9" stroke="#e2e8f0" stroke-width="1"/>
  <text x="252" y="124" fill="#64748b" font-size="10">☐ Select</text>
  <rect x="312" y="105" width="65" height="30" rx="8" fill="#2563eb"/>
  <text x="326" y="124" fill="#fff" font-size="10" font-weight="600">+ New</text>
  <rect x="12" y="150" width="366" height="34" rx="8" fill="#f1f5f9"/>
  <circle cx="28" cy="167" r="4" fill="none" stroke="#94a3b8" stroke-width="1.5"/>
  <line x1="31" y1="170" x2="36" y2="175" stroke="#94a3b8" stroke-width="1.5"/>
  <text x="40" y="171" fill="#94a3b8" font-size="11">Search by name or phone...</text>
  <!-- Mini Stats -->
  <rect x="12" y="206" width="118" height="50" rx="10" fill="#eff6ff"/>
  <text x="24" y="226" fill="#2563eb" font-size="18" font-weight="700">48</text>
  <text x="24" y="246" fill="#1e40af" font-size="10">Total</text>
  <rect x="138" y="206" width="118" height="50" rx="10" fill="#f0fdf4"/>
  <text x="150" y="226" fill="#16a34a" font-size="18" font-weight="700">32</text>
  <text x="150" y="246" fill="#166534" font-size="10">Active</text>
  <rect x="264" y="206" width="114" height="50" rx="10" fill="#f5f3ff"/>
  <text x="276" y="226" fill="#8b5cf6" font-size="18" font-weight="700">18</text>
  <text x="276" y="246" fill="#6d28d9" font-size="10">This Month</text>
  <!-- Customer Cards -->
  <g transform="translate(12, 270)">
    <!-- Card 1 -->
    <rect x="0" y="0" width="366" height="52" rx="10" fill="#fff" stroke="#e2e8f0" stroke-width="1" filter="url(#s1)"/>
    <circle cx="22" cy="26" r="16" fill="#dbeafe"/>
    <text x="22" y="31" fill="#2563eb" font-size="10" font-weight="700" text-anchor="middle">AK</text>
    <text x="46" y="23" fill="#0f172a" font-size="13" font-weight="600">Ali Khan</text>
    <text x="46" y="41" fill="#64748b" font-size="10">📞 0300-1234567 · 8 orders</text>
    <text x="320" y="30" fill="#cbd5e1" font-size="16">›</text>
    <!-- Card 2 -->
    <rect x="0" y="58" width="366" height="52" rx="10" fill="#fff" stroke="#e2e8f0" stroke-width="1" filter="url(#s1)"/>
    <circle cx="22" cy="84" r="16" fill="#fce7f3"/>
    <text x="22" y="89" fill="#db2777" font-size="10" font-weight="700" text-anchor="middle">SA</text>
    <text x="46" y="81" fill="#0f172a" font-size="13" font-weight="600">Sara Ahmed</text>
    <rect x="140" y="70" width="38" height="16" rx="4" fill="#fce7f3"/>
    <text x="159" y="82" fill="#db2777" font-size="8" text-anchor="middle">Female</text>
    <text x="46" y="99" fill="#64748b" font-size="10">📞 0321-7654321 · 12 orders</text>
    <text x="320" y="88" fill="#cbd5e1" font-size="16">›</text>
    <!-- Card 3 -->
    <rect x="0" y="116" width="366" height="52" rx="10" fill="#fff" stroke="#e2e8f0" stroke-width="1" filter="url(#s1)"/>
    <circle cx="22" cy="142" r="16" fill="#dcfce7"/>
    <text x="22" y="147" fill="#16a34a" font-size="10" font-weight="700" text-anchor="middle">UM</text>
    <text x="46" y="139" fill="#0f172a" font-size="13" font-weight="600">Usman Malik</text>
    <text x="46" y="157" fill="#64748b" font-size="10">📞 0333-9876543 · 5 orders</text>
    <text x="320" y="146" fill="#cbd5e1" font-size="16">›</text>
    <!-- Card 4 -->
    <rect x="0" y="174" width="366" height="52" rx="10" fill="#fff" stroke="#e2e8f0" stroke-width="1" filter="url(#s1)"/>
    <circle cx="22" cy="200" r="16" fill="#fef3c7"/>
    <text x="22" y="205" fill="#d97706" font-size="10" font-weight="700" text-anchor="middle">FB</text>
    <text x="46" y="197" fill="#0f172a" font-size="13" font-weight="600">Fatima Bibi</text>
    <rect x="140" y="186" width="38" height="16" rx="4" fill="#fce7f3"/>
    <text x="159" y="198" fill="#db2777" font-size="8" text-anchor="middle">Female</text>
    <text x="46" y="215" fill="#64748b" font-size="10">📞 0345-1112233 · 15 orders</text>
    <text x="320" y="204" fill="#cbd5e1" font-size="16">›</text>
    <!-- Card 5 -->
    <rect x="0" y="232" width="366" height="52" rx="10" fill="#fff" stroke="#e2e8f0" stroke-width="1" filter="url(#s1)"/>
    <circle cx="22" cy="258" r="16" fill="#ede9fe"/>
    <text x="22" y="263" fill="#7c3aed" font-size="10" font-weight="700" text-anchor="middle">IR</text>
    <text x="46" y="255" fill="#0f172a" font-size="13" font-weight="600">Imran Raza</text>
    <text x="46" y="273" fill="#64748b" font-size="10">📞 0312-5556677 · 3 orders</text>
    <text x="320" y="262" fill="#cbd5e1" font-size="16">›</text>
    <!-- Card 6 -->
    <rect x="0" y="290" width="366" height="52" rx="10" fill="#fff" stroke="#e2e8f0" stroke-width="1" filter="url(#s1)"/>
    <circle cx="22" cy="316" r="16" fill="#ffe4e6"/>
    <text x="22" y="321" fill="#e11d48" font-size="10" font-weight="700" text-anchor="middle">ZN</text>
    <text x="46" y="313" fill="#0f172a" font-size="13" font-weight="600">Zainab Noor</text>
    <rect x="140" y="302" width="38" height="16" rx="4" fill="#fce7f3"/>
    <text x="159" y="314" fill="#db2777" font-size="8" text-anchor="middle">Female</text>
    <text x="46" y="331" fill="#64748b" font-size="10">📞 0346-3334444 · 7 orders</text>
    <text x="320" y="320" fill="#cbd5e1" font-size="16">›</text>
    <!-- Card 7 -->
    <rect x="0" y="348" width="366" height="52" rx="10" fill="#fff" stroke="#e2e8f0" stroke-width="1" filter="url(#s1)"/>
    <circle cx="22" cy="374" r="16" fill="#dbeafe"/>
    <text x="22" y="379" fill="#2563eb" font-size="10" font-weight="700" text-anchor="middle">KH</text>
    <text x="46" y="371" fill="#0f172a" font-size="13" font-weight="600">Kamran Hassan</text>
    <text x="46" y="389" fill="#64748b" font-size="10">📞 0333-5554433 · 4 orders</text>
    <text x="320" y="378" fill="#cbd5e1" font-size="16">›</text>
  </g>
  <!-- Bottom Nav -->
  <rect x="0" y="790" width="390" height="54" fill="#fff" filter="url(#s1)"/>
  <rect x="0" y="789" width="390" height="1" fill="#e2e8f0"/>
  <text x="37" y="822" fill="#94a3b8" font-size="17" text-anchor="middle">🏠</text>
  <text x="37" y="830" fill="#94a3b8" font-size="9" text-anchor="middle">Home</text>
  <text x="85" y="822" fill="#94a3b8" font-size="17" text-anchor="middle">📋</text>
  <text x="85" y="830" fill="#94a3b8" font-size="9" text-anchor="middle">Orders</text>
  <circle cx="158" cy="808" r="20" fill="#2563eb"/>
  <line x1="150" y1="808" x2="166" y2="808" stroke="#fff" stroke-width="2.5" stroke-linecap="round"/>
  <line x1="158" y1="800" x2="158" y2="816" stroke="#fff" stroke-width="2.5" stroke-linecap="round"/>
  <rect x="210" y="796" width="55" height="42" rx="8" fill="#eff6ff"/>
  <text x="237" y="822" fill="#2563eb" font-size="17" text-anchor="middle">👥</text>
  <text x="237" y="830" fill="#2563eb" font-size="9" text-anchor="middle" font-weight="600">Customers</text>
  <text x="320" y="822" fill="#94a3b8" font-size="17" text-anchor="middle">⚙️</text>
  <text x="320" y="830" fill="#94a3b8" font-size="9" text-anchor="middle">Settings</text>
  <rect x="130" y="838" width="130" height="5" rx="2.5" fill="#0f172a"/>
</svg>
