<svg xmlns="http://www.w3.org/2000/svg" viewBox="0 0 390 844" font-family="Poppins, system-ui, sans-serif">
  <defs>
    <filter id="s1" x="-5%" y="-5%" width="115%" height="115%"><feDropShadow dx="0" dy="1" stdDeviation="3" flood-opacity="0.04"/></filter>
  </defs>
  <rect x="0" y="0" width="390" height="844" fill="#f0f4f8"/>
  <rect x="0" y="0" width="390" height="44" fill="#0f172a"/>
  <text x="20" y="28" fill="#fff" font-size="12" font-weight="600">9:41</text>
  <rect x="320" y="18" width="18" height="10" rx="2" fill="none" stroke="#fff" stroke-width="1.2"/>
  <rect x="336" y="21" width="3" height="4" rx="1" fill="#fff"/>
  <text x="350" y="28" fill="#fff" font-size="11">📶</text>
  <rect x="145" y="6" width="100" height="22" rx="11" fill="#0f172a"/>
  <rect x="170" y="12" width="50" height="10" rx="5" fill="#1e293b"/>
  <!-- Step Indicator Header -->
  <rect x="0" y="44" width="390" height="80" fill="#fff"/>
  <rect x="0" y="123" width="390" height="1" fill="#e2e8f0"/>
  <line x1="20" y1="64" x2="36" y2="64" stroke="#0f172a" stroke-width="2" stroke-linecap="round"/>
  <line x1="20" y1="70" x2="32" y2="70" stroke="#0f172a" stroke-width="2" stroke-linecap="round"/>
  <text x="16" y="88" fill="#64748b" font-size="10">Step 1 of 3</text>
  <text x="16" y="108" fill="#0f172a" font-size="17" font-weight="700">Gahak Chunein</text>
  <!-- Progress -->
  <rect x="16" y="116" width="80" height="3" rx="1.5" fill="#16a34a"/>
  <rect x="102" y="116" width="80" height="3" rx="1.5" fill="#e2e8f0"/>
  <rect x="188" y="116" width="80" height="3" rx="1.5" fill="#e2e8f0"/>
  <text x="16" y="134" fill="#16a34a" font-size="9" font-weight="500">✓ Gahak Chunein</text>
    <text x="102" y="134" fill="#94a3b8" font-size="9">2 Kapra &amp; Nap</text>
    <text x="188" y="134" fill="#94a3b8" font-size="9">3 Qeemat &amp; Tarikh</text>
  <!-- Scrollable Content -->
  <text x="16" y="156" fill="#0f172a" font-size="14" font-weight="600">Customer Select Karein</text>
  <text x="16" y="174" fill="#64748b" font-size="11">Dhundein ya naya gahak banayein</text>
  <!-- Search -->
  <rect x="12" y="190" width="280" height="36" rx="8" fill="#f1f5f9" stroke="#e2e8f0" stroke-width="1"/>
  <circle cx="28" cy="208" r="5" fill="none" stroke="#94a3b8" stroke-width="1.5"/>
  <line x1="32" y1="212" x2="38" y2="218" stroke="#94a3b8" stroke-width="1.5"/>
  <text x="42" y="213" fill="#94a3b8" font-size="11">Search by name or phone...</text>
  <rect x="300" y="190" width="78" height="36" rx="8" fill="#fff" stroke="#2563eb" stroke-width="1.5" stroke-dasharray="4,2"/>
  <text x="339" y="213" fill="#2563eb" font-size="21" text-anchor="middle">+</text>
  <!-- Quick Customer Add -->
  <rect x="12" y="238" width="366" height="160" rx="12" fill="#fff" stroke="#e2e8f0" stroke-width="1" filter="url(#s1)"/>
  <text x="24" y="260" fill="#0f172a" font-size="13" font-weight="600">Naya Gahak — Details</text>
  <text x="24" y="282" fill="#64748b" font-size="10">Gender *</text>
  <rect x="24" y="290" width="72" height="28" rx="6" fill="#2563eb"/>
  <text x="60" y="309" fill="#fff" font-size="10" text-anchor="middle">🧑 Male</text>
  <rect x="104" y="290" width="80" height="28" rx="6" fill="#f1f5f9" stroke="#e2e8f0" stroke-width="1"/>
  <text x="144" y="309" fill="#64748b" font-size="10" text-anchor="middle">👩 Female</text>
  <rect x="192" y="290" width="72" height="28" rx="6" fill="#f1f5f9" stroke="#e2e8f0" stroke-width="1"/>
  <text x="228" y="309" fill="#64748b" font-size="10" text-anchor="middle">👦 Child</text>
  <text x="24" y="340" fill="#64748b" font-size="10">Name *</text>
  <rect x="24" y="348" width="160" height="32" rx="6" fill="#fff" stroke="#d1d5db" stroke-width="1"/>
  <text x="34" y="369" fill="#cbd5e1" font-size="11">Ali Raza</text>
  <text x="196" y="340" fill="#64748b" font-size="10">Phone *</text>
  <rect x="196" y="348" width="170" height="32" rx="6" fill="#fff" stroke="#16a34a" stroke-width="1.5"/>
  <text x="206" y="369" fill="#0f172a" font-size="11">0301</text>
  <text x="230" y="369" fill="#9ca3af" font-size="11">123-4567</text>
  <text x="345" y="369" fill="#16a34a" font-size="13">✓</text>
  <rect x="24" y="390" width="140" height="34" rx="8" fill="#2563eb"/>
  <text x="94" y="411" fill="#fff" font-size="11" font-weight="600" text-anchor="middle">💾 Save Gahak</text>
  <!-- Customer List -->
  <text x="16" y="420" fill="#0f172a" font-size="13" font-weight="600">Ya Pehle Se Chunein</text>
  <!-- Customer 1 - Selected -->
  <rect x="12" y="432" width="366" height="44" rx="8" fill="#eff6ff" stroke="#2563eb" stroke-width="1.5"/>
  <rect x="20" y="444" width="18" height="18" rx="5" fill="#2563eb"/>
  <text x="29" y="457" fill="#fff" font-size="11" font-weight="700">✓</text>
  <circle cx="60" cy="454" r="14" fill="#dbeafe"/>
  <text x="60" y="458" fill="#2563eb" font-size="9" font-weight="700" text-anchor="middle">AR</text>
  <text x="80" y="452" fill="#0f172a" font-size="12" font-weight="600">Ali Raza</text>
  <text x="80" y="467" fill="#64748b" font-size="9">📞 0301-1234567 · 6 orders</text>
  <text x="360" y="456" fill="#cbd5e1" font-size="14">›</text>
  <!-- Customer 2 -->
  <rect x="12" y="482" width="366" height="44" rx="8" fill="#fff" stroke="#e2e8f0" stroke-width="1" filter="url(#s1)"/>
  <circle cx="60" cy="504" r="14" fill="#fce7f3"/>
  <text x="60" y="508" fill="#db2777" font-size="9" font-weight="700" text-anchor="middle">SM</text>
  <text x="80" y="502" fill="#0f172a" font-size="12" font-weight="600">Saima Maqbool</text>
  <text x="80" y="517" fill="#64748b" font-size="9">📞 0322-9876543 · 12 orders</text>
  <text x="360" y="506" fill="#cbd5e1" font-size="14">›</text>
  <!-- Customer 3 -->
  <rect x="12" y="532" width="366" height="44" rx="8" fill="#fff" stroke="#e2e8f0" stroke-width="1" filter="url(#s1)"/>
  <circle cx="60" cy="554" r="14" fill="#dcfce7"/>
  <text x="60" y="558" fill="#16a34a" font-size="9" font-weight="700" text-anchor="middle">KH</text>
  <text x="80" y="552" fill="#0f172a" font-size="12" font-weight="600">Kamran Hassan</text>
  <text x="80" y="567" fill="#64748b" font-size="9">📞 0333-5554433 · 4 orders</text>
  <text x="360" y="556" fill="#cbd5e1" font-size="14">›</text>
  <!-- Customer 4 -->
  <rect x="12" y="582" width="366" height="44" rx="8" fill="#fff" stroke="#e2e8f0" stroke-width="1" filter="url(#s1)"/>
  <circle cx="60" cy="604" r="14" fill="#fef3c7"/>
  <text x="60" y="608" fill="#d97706" font-size="9" font-weight="700" text-anchor="middle">NB</text>
  <text x="80" y="602" fill="#0f172a" font-size="12" font-weight="600">Nadia Batool</text>
  <text x="80" y="617" fill="#64748b" font-size="9">📞 0345-2223344 · 9 orders</text>
  <text x="360" y="606" fill="#cbd5e1" font-size="14">›</text>
  <!-- Sticky Next Button -->
  <rect x="0" y="740" width="390" height="50" fill="#fff" filter="url(#s1)"/>
  <rect x="0" y="739" width="390" height="1" fill="#e2e8f0"/>
  <rect x="16" y="752" width="358" height="36" rx="10" fill="#2563eb"/>
  <text x="195" y="775" fill="#fff" font-size="13" font-weight="600" text-anchor="middle">Ali Raza — Aage Barein →</text>
  <!-- Bottom Nav -->
  <rect x="0" y="790" width="390" height="54" fill="#fff" filter="url(#s1)"/>
  <rect x="0" y="789" width="390" height="1" fill="#e2e8f0"/>
  <text x="37" y="822" fill="#94a3b8" font-size="17" text-anchor="middle">🏠</text>
  <text x="37" y="830" fill="#94a3b8" font-size="9" text-anchor="middle">Home</text>
  <rect x="68" y="796" width="55" height="42" rx="8" fill="#eff6ff"/>
  <text x="85" y="822" fill="#2563eb" font-size="17" text-anchor="middle">📋</text>
  <text x="85" y="830" fill="#2563eb" font-size="9" text-anchor="middle" font-weight="600">Orders</text>
  <circle cx="158" cy="808" r="20" fill="#2563eb"/>
  <line x1="150" y1="808" x2="166" y2="808" stroke="#fff" stroke-width="2.5" stroke-linecap="round"/>
  <line x1="158" y1="800" x2="158" y2="816" stroke="#fff" stroke-width="2.5" stroke-linecap="round"/>
  <text x="240" y="822" fill="#94a3b8" font-size="17" text-anchor="middle">👥</text>
  <text x="240" y="830" fill="#94a3b8" font-size="9" text-anchor="middle">Customers</text>
  <text x="320" y="822" fill="#94a3b8" font-size="17" text-anchor="middle">⚙️</text>
  <text x="320" y="830" fill="#94a3b8" font-size="9" text-anchor="middle">Settings</text>
  <rect x="130" y="838" width="130" height="5" rx="2.5" fill="#0f172a"/>
</svg>
