<svg xmlns="http://www.w3.org/2000/svg" viewBox="0 0 390 844" font-family="Poppins, system-ui, sans-serif">
  <defs>
    <filter id="s1" x="-5%" y="-5%" width="115%" height="115%"><feDropShadow dx="0" dy="1" stdDeviation="3" flood-opacity="0.04"/></filter>
  </defs>
  <rect x="0" y="0" width="390" height="844" fill="#f0f4f8"/>
  <!-- Status Bar -->
  <rect x="0" y="0" width="390" height="44" fill="#0f172a"/>
  <text x="20" y="28" fill="#fff" font-size="12" font-weight="600">9:41</text>
  <rect x="320" y="18" width="18" height="10" rx="2" fill="none" stroke="#fff" stroke-width="1.2"/>
  <rect x="336" y="21" width="3" height="4" rx="1" fill="#fff"/>
  <text x="350" y="28" fill="#fff" font-size="11">📶</text>
  <rect x="145" y="6" width="100" height="22" rx="11" fill="#0f172a"/>
  <rect x="170" y="12" width="50" height="10" rx="5" fill="#1e293b"/>
  <!-- App Header -->
  <rect x="0" y="44" width="390" height="52" fill="#fff"/>
  <rect x="0" y="95" width="390" height="1" fill="#e2e8f0"/>
  <line x1="20" y1="64" x2="36" y2="64" stroke="#0f172a" stroke-width="2" stroke-linecap="round"/>
  <line x1="20" y1="70" x2="32" y2="70" stroke="#0f172a" stroke-width="2" stroke-linecap="round"/>
  <text x="140" y="76" fill="#0f172a" font-size="18" font-weight="700">Orders</text>
  <rect x="340" y="56" width="30" height="30" rx="8" fill="#f1f5f9"/>
  <text x="355" y="76" fill="#64748b" font-size="16">🔔</text>
  <circle cx="360" cy="60" r="7" fill="#ef4444"/>
  <text x="360" y="64" fill="#fff" font-size="7" font-weight="600" text-anchor="middle">3</text>
  <!-- Sticky Header -->
  <rect x="0" y="96" width="390" height="120" fill="#fff"/>
  <rect x="0" y="215" width="390" height="1" fill="#e2e8f0"/>
  <text x="16" y="120" fill="#64748b" font-size="11">Showing 12 of 289 orders</text>
  <rect x="240" y="105" width="65" height="30" rx="8" fill="#f1f5f9" stroke="#e2e8f0" stroke-width="1"/>
  <text x="252" y="124" fill="#64748b" font-size="10">☐ Select</text>
  <rect x="312" y="105" width="65" height="30" rx="8" fill="#2563eb"/>
  <text x="326" y="124" fill="#fff" font-size="10" font-weight="600">+ New</text>
  <!-- Search -->
  <rect x="12" y="145" width="280" height="34" rx="8" fill="#f1f5f9"/>
  <circle cx="28" cy="162" r="4" fill="none" stroke="#94a3b8" stroke-width="1.5"/>
  <line x1="31" y1="165" x2="36" y2="170" stroke="#94a3b8" stroke-width="1.5"/>
  <text x="40" y="166" fill="#94a3b8" font-size="11">Search orders...</text>
  <rect x="302" y="145" width="76" height="34" rx="8" fill="#2563eb"/>
  <text x="318" y="166" fill="#fff" font-size="11">📊 Status</text>
  <!-- Quick Filter Pills -->
  <rect x="12" y="190" width="50" height="24" rx="12" fill="#2563eb"/>
  <text x="37" y="206" fill="#fff" font-size="9" font-weight="600" text-anchor="middle">Sab</text>
  <rect x="68" y="190" width="60" height="24" rx="12" fill="#fef2f2" stroke="#fecaca" stroke-width="1"/>
  <text x="98" y="206" fill="#dc2626" font-size="9" font-weight="600" text-anchor="middle">🔴 Deri</text>
  <rect x="134" y="190" width="60" height="24" rx="12" fill="#fff" stroke="#e2e8f0" stroke-width="1"/>
  <text x="164" y="206" fill="#64748b" font-size="9" text-anchor="middle">✅ Tayyar</text>
  <rect x="200" y="190" width="55" height="24" rx="12" fill="#fff" stroke="#e2e8f0" stroke-width="1"/>
  <text x="227" y="206" fill="#64748b" font-size="9" text-anchor="middle">📅 Aaj</text>
  <rect x="261" y="190" width="80" height="24" rx="12" fill="#fff" stroke="#e2e8f0" stroke-width="1"/>
  <text x="301" y="206" fill="#64748b" font-size="9" text-anchor="middle">👤 Bina Assign</text>
  <!-- Order Cards -->
  <g transform="translate(12, 228)">
    <!-- Card 1 -->
    <rect x="0" y="0" width="366" height="56" rx="10" fill="#fff" stroke="#e2e8f0" stroke-width="1" filter="url(#s1)"/>
    <text x="16" y="20" fill="#0f172a" font-size="12" font-weight="600">#1024</text>
    <text x="68" y="20" fill="#64748b" font-size="10">👘 Shalwar Kameez</text>
    <rect x="200" y="8" width="70" height="20" rx="10" fill="#fef3c7" stroke="#fde68a" stroke-width="1"/>
    <text x="235" y="22" fill="#d97706" font-size="9" text-anchor="middle">✂️ Katai ▾</text>
    <text x="16" y="42" fill="#0f172a" font-size="11" font-weight="500">Ali Khan</text>
    <text x="90" y="42" fill="#2563eb" font-size="9">For: Self</text>
    <text x="200" y="42" fill="#64748b" font-size="9">Rs 500 / Rs 1,500</text>
    <text x="310" y="48" fill="#94a3b8" font-size="8">📷 2</text>
    <!-- Card 2 -->
    <rect x="0" y="64" width="366" height="56" rx="10" fill="#fff" stroke="#e2e8f0" stroke-width="1" filter="url(#s1)"/>
    <text x="16" y="84" fill="#0f172a" font-size="12" font-weight="600">#1023</text>
    <text x="68" y="84" fill="#64748b" font-size="10">👚 Kurti</text>
    <rect x="200" y="72" width="70" height="20" rx="10" fill="#dcfce7" stroke="#bbf7d0" stroke-width="1"/>
    <text x="235" y="86" fill="#16a34a" font-size="9" text-anchor="middle">✅ Tayyar ▾</text>
    <text x="16" y="106" fill="#0f172a" font-size="11" font-weight="500">Sara Ahmed</text>
    <text x="90" y="106" fill="#2563eb" font-size="9">For: Self</text>
    <text x="200" y="106" fill="#64748b" font-size="9">Rs 2,000 / Rs 3,200</text>
    <rect x="290" y="72" width="65" height="20" rx="10" fill="#16a34a"/>
    <text x="322" y="86" fill="#fff" font-size="8" text-anchor="middle">💬 WhatsApp</text>
    <!-- Card 3 - Overdue -->
    <rect x="0" y="128" width="366" height="56" rx="10" fill="#fffbeb" stroke="#fde68a" stroke-width="1" filter="url(#s1)"/>
    <text x="16" y="148" fill="#0f172a" font-size="12" font-weight="600">#1022</text>
    <text x="68" y="148" fill="#64748b" font-size="10">🎩 Sherwani</text>
    <rect x="200" y="136" width="70" height="20" rx="10" fill="#dbeafe" stroke="#bfdbfe" stroke-width="1"/>
    <text x="235" y="150" fill="#2563eb" font-size="9" text-anchor="middle">🧵 Silai ▾</text>
    <text x="16" y="170" fill="#0f172a" font-size="11" font-weight="500">Usman Malik</text>
    <text x="90" y="170" fill="#ef4444" font-size="9" font-weight="500">🔴 2 din late</text>
    <text x="200" y="170" fill="#64748b" font-size="9">Rs 1,000 / Rs 2,500</text>
    <!-- Card 4 -->
    <rect x="0" y="192" width="366" height="56" rx="10" fill="#fff" stroke="#e2e8f0" stroke-width="1" filter="url(#s1)"/>
    <text x="16" y="212" fill="#0f172a" font-size="12" font-weight="600">#1021</text>
    <text x="68" y="212" fill="#64748b" font-size="10">👕 Kurta</text>
    <rect x="200" y="200" width="70" height="20" rx="10" fill="#fef3c7" stroke="#fde68a" stroke-width="1"/>
    <text x="235" y="214" fill="#d97706" font-size="9" text-anchor="middle">📋 Mila ▾</text>
    <text x="16" y="234" fill="#0f172a" font-size="11" font-weight="500">Fatima Bibi</text>
    <text x="90" y="234" fill="#2563eb" font-size="9">For: Daughter</text>
    <text x="220" y="234" fill="#16a34a" font-size="9" font-weight="600">✓ Poora Mila</text>
    <!-- Card 5 -->
    <rect x="0" y="256" width="366" height="56" rx="10" fill="#fff" stroke="#e2e8f0" stroke-width="1" filter="url(#s1)"/>
    <text x="16" y="276" fill="#0f172a" font-size="12" font-weight="600">#1020</text>
    <text x="68" y="276" fill="#64748b" font-size="10">👖 Trouser</text>
    <rect x="200" y="264" width="70" height="20" rx="10" fill="#f3e8ff" stroke="#e9d5ff" stroke-width="1"/>
    <text x="235" y="278" fill="#9333ea" font-size="9" text-anchor="middle">✨ Finish ▾</text>
    <text x="16" y="298" fill="#0f172a" font-size="11" font-weight="500">Imran Ali</text>
    <text x="90" y="298" fill="#2563eb" font-size="9">Shahid</text>
    <text x="200" y="298" fill="#64748b" font-size="9">Rs 300 / Rs 800</text>
    <!-- Card 6 -->
    <rect x="0" y="320" width="366" height="56" rx="10" fill="#fff" stroke="#e2e8f0" stroke-width="1" filter="url(#s1)"/>
    <text x="16" y="340" fill="#0f172a" font-size="12" font-weight="600">#1019</text>
    <text x="68" y="340" fill="#64748b" font-size="10">🧥 Blazer</text>
    <rect x="200" y="328" width="70" height="20" rx="10" fill="#e2e8f0" stroke="#cbd5e1" stroke-width="1"/>
    <text x="235" y="342" fill="#64748b" font-size="9" text-anchor="middle">📦 De Diya ▾</text>
    <text x="16" y="362" fill="#0f172a" font-size="11" font-weight="500">Kamran Hassan</text>
    <text x="90" y="362" fill="#2563eb" font-size="9">For: Self</text>
    <text x="220" y="362" fill="#16a34a" font-size="9" font-weight="600">✓ Poora Mila</text>
    <!-- Card 7 -->
    <rect x="0" y="384" width="366" height="56" rx="10" fill="#fff" stroke="#e2e8f0" stroke-width="1" filter="url(#s1)"/>
    <text x="16" y="404" fill="#0f172a" font-size="12" font-weight="600">#1018</text>
    <text x="68" y="404" fill="#64748b" font-size="10">💃 Lehenga</text>
    <rect x="200" y="392" width="70" height="20" rx="10" fill="#dcfce7" stroke="#bbf7d0" stroke-width="1"/>
    <text x="235" y="406" fill="#16a34a" font-size="9" text-anchor="middle">✅ Tayyar ▾</text>
    <text x="16" y="426" fill="#0f172a" font-size="11" font-weight="500">Zainab Noor</text>
    <text x="90" y="426" fill="#2563eb" font-size="9">For: Self</text>
    <text x="200" y="426" fill="#64748b" font-size="9">Rs 5,000 / Rs 8,000</text>
    <rect x="290" y="392" width="65" height="20" rx="10" fill="#16a34a"/>
    <text x="322" y="406" fill="#fff" font-size="8" text-anchor="middle">💬 WhatsApp</text>
  </g>
  <!-- Bottom Nav -->
  <rect x="0" y="790" width="390" height="54" fill="#fff" filter="url(#s1)"/>
  <rect x="0" y="789" width="390" height="1" fill="#e2e8f0"/>
  <text x="37" y="822" fill="#94a3b8" font-size="17" text-anchor="middle">🏠</text>
  <text x="37" y="830" fill="#94a3b8" font-size="9" text-anchor="middle">Home</text>
  <rect x="68" y="796" width="55" height="42" rx="8" fill="#eff6ff"/>
  <text x="85" y="822" fill="#2563eb" font-size="17" text-anchor="middle">📋</text>
  <text x="85" y="830" fill="#2563eb" font-size="9" text-anchor="middle" font-weight="600">Orders</text>
  <circle cx="158" cy="808" r="20" fill="#2563eb"/>
  <line x1="150" y1="808" x2="166" y2="808" stroke="#fff" stroke-width="2.5" stroke-linecap="round"/>
  <line x1="158" y1="800" x2="158" y2="816" stroke="#fff" stroke-width="2.5" stroke-linecap="round"/>
  <text x="240" y="822" fill="#94a3b8" font-size="17" text-anchor="middle">👥</text>
  <text x="240" y="830" fill="#94a3b8" font-size="9" text-anchor="middle">Customers</text>
  <text x="320" y="822" fill="#94a3b8" font-size="17" text-anchor="middle">⚙️</text>
  <text x="320" y="830" fill="#94a3b8" font-size="9" text-anchor="middle">Settings</text>
  <rect x="130" y="838" width="130" height="5" rx="2.5" fill="#0f172a"/>
</svg>
